<svg id="svg" version="1.1" xmlns="http://www.w3.org/2000/svg" xmlns:xlink="http://www.w3.org/1999/xlink" width="400" height="97.00000000000001" viewBox="0, 0, 400,97.00000000000001"><g id="svgg"><path id="path0" d="M71.500 4.667 C 71.500 4.758,71.350 4.833,71.167 4.833 C 70.983 4.833,70.833 4.908,70.833 5.000 C 70.833 5.212,70.891 5.209,71.409 4.973 C 71.831 4.781,71.984 4.500,71.667 4.500 C 71.575 4.500,71.500 4.575,71.500 4.667 M74.167 4.640 C 74.167 4.717,74.358 4.867,74.591 4.973 C 75.109 5.209,75.167 5.212,75.167 5.000 C 75.167 4.908,75.017 4.833,74.833 4.833 C 74.650 4.833,74.500 4.758,74.500 4.667 C 74.500 4.575,74.425 4.500,74.333 4.500 C 74.242 4.500,74.167 4.563,74.167 4.640 M69.833 6.167 C 69.833 6.350,69.758 6.500,69.667 6.500 C 69.575 6.500,69.500 6.575,69.500 6.667 C 69.500 6.984,69.781 6.831,69.973 6.409 C 70.209 5.891,70.212 5.833,70.000 5.833 C 69.908 5.833,69.833 5.983,69.833 6.167 M92.833 8.000 C 92.833 8.092,92.988 8.167,93.177 8.167 C 93.365 8.167,93.473 8.092,93.417 8.000 C 93.360 7.908,93.206 7.833,93.073 7.833 C 92.941 7.833,92.833 7.908,92.833 8.000 M89.833 8.286 C 89.833 8.382,89.683 8.500,89.500 8.548 C 89.317 8.596,89.167 8.755,89.167 8.901 C 89.167 9.047,89.092 9.167,89.000 9.167 C 88.908 9.167,88.833 9.273,88.833 9.403 C 88.833 9.533,88.740 9.677,88.625 9.723 C 88.492 9.777,88.485 9.812,88.606 9.820 C 88.710 9.827,88.925 9.627,89.085 9.375 C 89.245 9.123,89.533 8.791,89.727 8.636 C 89.920 8.482,90.023 8.301,89.956 8.234 C 89.888 8.166,89.833 8.190,89.833 8.286 M93.669 8.295 C 93.668 8.412,93.846 8.589,94.065 8.689 C 94.284 8.788,94.545 9.049,94.645 9.268 C 94.745 9.487,94.922 9.666,95.038 9.664 C 95.169 9.663,95.186 9.615,95.083 9.539 C 94.992 9.472,94.837 9.272,94.739 9.094 C 94.641 8.917,94.416 8.692,94.239 8.594 C 94.062 8.497,93.862 8.342,93.794 8.250 C 93.719 8.147,93.671 8.165,93.669 8.295 M69.500 9.073 C 69.500 9.206,69.575 9.360,69.667 9.417 C 69.758 9.473,69.833 9.365,69.833 9.177 C 69.833 8.988,69.758 8.833,69.667 8.833 C 69.575 8.833,69.500 8.941,69.500 9.073 M76.167 9.177 C 76.167 9.365,76.242 9.473,76.333 9.417 C 76.425 9.360,76.500 9.206,76.500 9.073 C 76.500 8.941,76.425 8.833,76.333 8.833 C 76.242 8.833,76.167 8.988,76.167 9.177 M70.370 10.226 C 70.671 10.533,70.949 10.758,70.988 10.724 C 71.084 10.642,70.140 9.667,69.964 9.667 C 69.887 9.667,70.070 9.918,70.370 10.226 M75.439 10.183 C 75.177 10.459,75.008 10.730,75.064 10.786 C 75.121 10.843,75.167 10.801,75.167 10.694 C 75.167 10.587,75.282 10.500,75.422 10.500 C 75.562 10.500,75.726 10.369,75.785 10.208 C 75.844 10.048,75.973 9.862,76.071 9.794 C 76.178 9.721,76.182 9.674,76.083 9.677 C 75.992 9.680,75.702 9.908,75.439 10.183 M54.000 10.000 C 54.000 10.092,54.417 10.167,54.927 10.167 C 55.502 10.167,55.814 10.103,55.750 10.000 C 55.693 9.908,55.276 9.833,54.823 9.833 C 54.371 9.833,54.000 9.908,54.000 10.000 M56.167 10.313 C 56.167 10.394,56.382 10.549,56.645 10.658 C 56.908 10.767,57.207 11.038,57.308 11.261 C 57.410 11.484,57.588 11.666,57.705 11.664 C 57.835 11.663,57.853 11.615,57.750 11.539 C 57.658 11.472,57.502 11.267,57.403 11.083 C 57.304 10.900,57.060 10.676,56.861 10.585 C 56.663 10.495,56.500 10.364,56.500 10.294 C 56.500 10.224,56.425 10.167,56.333 10.167 C 56.242 10.167,56.167 10.233,56.167 10.313 M95.167 10.500 C 95.167 10.683,95.242 10.833,95.333 10.833 C 95.425 10.833,95.500 10.683,95.500 10.500 C 95.500 10.317,95.425 10.167,95.333 10.167 C 95.242 10.167,95.167 10.317,95.167 10.500 M88.167 11.157 C 88.167 11.426,88.242 11.693,88.333 11.750 C 88.433 11.811,88.500 11.613,88.500 11.260 C 88.500 10.934,88.425 10.667,88.333 10.667 C 88.242 10.667,88.167 10.887,88.167 11.157 M51.875 11.266 C 51.669 11.480,51.500 11.770,51.500 11.911 C 51.500 12.051,51.425 12.167,51.333 12.167 C 51.242 12.167,51.167 12.242,51.167 12.333 C 51.167 12.688,51.436 12.458,51.882 11.724 C 52.414 10.847,52.412 10.710,51.875 11.266 M72.333 11.333 C 72.333 11.425,72.633 11.500,73.000 11.500 C 73.367 11.500,73.667 11.425,73.667 11.333 C 73.667 11.242,73.367 11.167,73.000 11.167 C 72.633 11.167,72.333 11.242,72.333 11.333 M95.167 12.177 C 95.167 12.365,95.242 12.473,95.333 12.417 C 95.425 12.360,95.500 12.206,95.500 12.073 C 95.500 11.941,95.425 11.833,95.333 11.833 C 95.242 11.833,95.167 11.988,95.167 12.177 M89.250 13.667 C 89.513 13.942,89.821 14.167,89.934 14.167 C 90.047 14.167,90.177 14.260,90.223 14.375 C 90.286 14.532,90.310 14.533,90.320 14.381 C 90.327 14.270,90.165 14.089,89.958 13.980 C 89.752 13.870,89.462 13.643,89.314 13.474 C 89.166 13.305,88.983 13.167,88.908 13.167 C 88.832 13.167,88.987 13.392,89.250 13.667 M94.240 13.736 C 94.063 13.866,93.973 14.029,94.042 14.097 C 94.111 14.166,94.167 14.135,94.167 14.028 C 94.167 13.921,94.275 13.833,94.407 13.833 C 94.539 13.833,94.693 13.758,94.750 13.667 C 94.900 13.424,94.614 13.463,94.240 13.736 M90.917 14.667 C 90.973 14.758,91.128 14.833,91.260 14.833 C 91.392 14.833,91.500 14.758,91.500 14.667 C 91.500 14.575,91.346 14.500,91.157 14.500 C 90.968 14.500,90.860 14.575,90.917 14.667 M92.167 14.667 C 92.167 14.758,92.350 14.833,92.573 14.833 C 92.797 14.833,93.027 14.758,93.083 14.667 C 93.143 14.569,92.974 14.500,92.677 14.500 C 92.396 14.500,92.167 14.575,92.167 14.667 M72.265 15.143 C 71.998 15.299,71.698 15.575,71.598 15.755 C 71.498 15.936,71.369 16.121,71.311 16.167 C 71.253 16.212,71.201 16.790,71.195 17.451 C 71.183 18.854,71.864 19.833,72.850 19.833 C 73.116 19.833,73.333 19.908,73.333 20.000 C 73.333 20.092,73.483 20.167,73.667 20.167 C 73.850 20.167,74.000 20.092,74.000 20.000 C 74.000 19.908,74.257 19.833,74.572 19.833 C 75.003 19.833,75.171 19.749,75.253 19.490 C 75.313 19.301,75.543 19.064,75.764 18.963 C 76.073 18.823,76.167 18.650,76.167 18.223 C 76.167 17.917,76.242 17.667,76.333 17.667 C 76.425 17.667,76.500 17.517,76.500 17.333 C 76.500 17.150,76.425 17.000,76.333 17.000 C 76.242 17.000,76.167 16.785,76.167 16.523 C 76.167 15.975,75.458 15.167,74.977 15.167 C 74.806 15.167,74.667 15.092,74.667 15.000 C 74.667 14.719,72.798 14.830,72.265 15.143 M56.208 16.370 C 55.825 16.555,55.700 16.833,56.000 16.833 C 56.092 16.833,56.167 16.758,56.167 16.667 C 56.167 16.575,56.317 16.500,56.500 16.500 C 56.683 16.500,56.833 16.425,56.833 16.333 C 56.833 16.128,56.693 16.136,56.208 16.370 M87.167 18.333 C 87.167 18.425,87.051 18.500,86.909 18.500 C 86.581 18.500,85.833 19.240,85.833 19.566 C 85.833 19.702,85.758 19.860,85.667 19.917 C 85.575 19.973,85.500 20.315,85.500 20.677 C 85.500 21.038,85.575 21.333,85.667 21.333 C 85.758 21.333,85.833 21.521,85.833 21.750 C 85.833 22.015,85.927 22.167,86.091 22.167 C 86.233 22.167,86.477 22.391,86.633 22.666 C 86.856 23.059,87.032 23.165,87.458 23.166 C 87.756 23.166,88.000 23.242,88.000 23.333 C 88.000 23.425,88.150 23.500,88.333 23.500 C 88.517 23.500,88.667 23.425,88.667 23.333 C 88.667 23.242,88.873 23.167,89.125 23.166 C 89.650 23.166,90.500 22.510,90.500 22.106 C 90.500 21.956,90.575 21.833,90.667 21.833 C 91.130 21.833,90.845 19.698,90.333 19.333 C 90.058 19.138,89.833 18.897,89.833 18.799 C 89.833 18.415,89.217 18.177,88.208 18.172 C 87.621 18.169,87.167 18.239,87.167 18.333 M105.917 19.333 C 105.860 19.425,105.968 19.500,106.157 19.500 C 106.346 19.500,106.500 19.425,106.500 19.333 C 106.500 19.242,106.392 19.167,106.260 19.167 C 106.128 19.167,105.973 19.242,105.917 19.333 M107.167 19.333 C 107.167 19.425,107.396 19.500,107.677 19.500 C 107.974 19.500,108.143 19.431,108.083 19.333 C 108.027 19.242,107.797 19.167,107.573 19.167 C 107.350 19.167,107.167 19.242,107.167 19.333 M105.005 19.826 C 104.880 20.000,104.640 20.178,104.472 20.222 C 104.304 20.266,104.167 20.422,104.167 20.568 C 104.167 20.714,104.079 20.833,103.972 20.833 C 103.865 20.833,103.823 20.878,103.878 20.933 C 103.933 20.988,104.297 20.727,104.686 20.353 C 105.076 19.979,105.358 19.636,105.314 19.591 C 105.269 19.547,105.130 19.653,105.005 19.826 M59.433 20.433 C 59.020 20.846,58.833 21.184,58.833 21.517 C 58.833 21.782,58.758 22.000,58.667 22.000 C 58.575 22.000,58.500 22.221,58.500 22.490 C 58.500 22.760,58.575 23.027,58.667 23.083 C 58.758 23.140,58.833 23.332,58.833 23.510 C 58.833 23.688,58.903 23.833,58.987 23.833 C 59.072 23.833,59.353 24.045,59.612 24.303 C 60.070 24.758,62.218 25.046,62.500 24.689 C 62.546 24.631,62.733 24.502,62.917 24.403 C 63.100 24.304,63.324 24.060,63.415 23.861 C 63.505 23.663,63.636 23.500,63.706 23.500 C 63.776 23.500,63.833 22.975,63.833 22.333 C 63.833 21.692,63.776 21.167,63.706 21.167 C 63.636 21.167,63.505 20.998,63.415 20.792 C 63.324 20.585,63.081 20.343,62.875 20.252 C 62.669 20.162,62.500 20.030,62.500 19.960 C 62.500 19.472,60.011 19.855,59.433 20.433 M109.000 19.968 C 109.000 20.145,109.644 20.749,109.729 20.652 C 109.762 20.614,109.611 20.412,109.394 20.202 C 109.177 19.993,109.000 19.888,109.000 19.968 M39.833 23.333 C 39.833 23.425,39.683 23.500,39.500 23.500 C 39.317 23.500,39.167 23.575,39.167 23.667 C 39.167 23.879,39.224 23.876,39.742 23.640 C 40.165 23.447,40.318 23.167,40.000 23.167 C 39.908 23.167,39.833 23.242,39.833 23.333 M103.500 23.740 C 103.500 23.872,103.575 24.027,103.667 24.083 C 103.758 24.140,103.833 24.032,103.833 23.843 C 103.833 23.654,103.758 23.500,103.667 23.500 C 103.575 23.500,103.500 23.608,103.500 23.740 M38.558 24.101 C 38.494 24.275,38.361 24.472,38.262 24.539 C 38.141 24.622,38.148 24.662,38.286 24.664 C 38.514 24.667,38.910 24.021,38.767 23.879 C 38.716 23.827,38.622 23.928,38.558 24.101 M43.833 24.635 C 43.833 24.894,44.307 25.415,44.431 25.291 C 44.499 25.223,44.468 25.167,44.361 25.167 C 44.254 25.167,44.167 25.017,44.167 24.833 C 44.167 24.650,44.092 24.500,44.000 24.500 C 43.908 24.500,43.833 24.561,43.833 24.635 M109.249 25.334 C 108.816 25.813,109.008 25.867,109.464 25.394 C 109.674 25.177,109.779 25.000,109.698 25.000 C 109.618 25.000,109.415 25.150,109.249 25.334 M104.500 25.262 C 104.500 25.457,104.986 25.833,105.238 25.833 C 105.382 25.833,105.500 25.908,105.500 26.000 C 105.500 26.092,105.575 26.167,105.667 26.167 C 106.014 26.167,105.813 25.865,105.333 25.667 C 105.058 25.553,104.833 25.394,104.833 25.313 C 104.833 25.233,104.758 25.167,104.667 25.167 C 104.575 25.167,104.500 25.210,104.500 25.262 M37.589 25.716 C 37.517 25.880,37.506 26.061,37.563 26.118 C 37.732 26.288,37.868 26.050,37.791 25.721 C 37.721 25.430,37.712 25.430,37.589 25.716 M106.250 26.333 C 106.307 26.425,106.649 26.500,107.010 26.500 C 107.371 26.500,107.667 26.425,107.667 26.333 C 107.667 26.242,107.325 26.167,106.907 26.167 C 106.443 26.167,106.187 26.232,106.250 26.333 M97.773 27.087 C 97.623 27.197,97.500 27.354,97.500 27.437 C 97.500 27.519,97.350 27.680,97.167 27.795 C 96.957 27.925,96.833 28.183,96.833 28.488 C 96.833 28.754,96.740 29.012,96.625 29.060 C 96.474 29.123,96.494 29.197,96.697 29.326 C 96.903 29.457,96.955 29.651,96.889 30.052 C 96.722 31.084,97.704 31.812,99.255 31.806 C 99.940 31.803,100.500 31.733,100.500 31.650 C 100.500 31.568,100.644 31.500,100.819 31.500 C 101.014 31.500,101.225 31.305,101.360 31.000 C 101.482 30.725,101.638 30.500,101.707 30.500 C 101.777 30.500,101.833 29.975,101.833 29.333 C 101.833 28.667,101.762 28.167,101.667 28.167 C 101.575 28.167,101.500 28.023,101.500 27.847 C 101.500 27.653,101.305 27.441,101.000 27.307 C 100.725 27.185,100.500 27.046,100.500 26.997 C 100.500 26.813,98.037 26.894,97.773 27.087 M37.500 27.417 C 37.500 27.554,37.575 27.667,37.667 27.667 C 37.758 27.667,37.833 27.554,37.833 27.417 C 37.833 27.279,37.758 27.167,37.667 27.167 C 37.575 27.167,37.500 27.279,37.500 27.417 M37.958 28.444 C 38.073 28.490,38.171 28.653,38.176 28.806 C 38.181 28.958,38.406 29.258,38.676 29.471 C 39.208 29.892,39.361 29.793,38.859 29.353 C 38.691 29.205,38.463 28.915,38.354 28.708 C 38.244 28.502,38.064 28.339,37.952 28.346 C 37.800 28.356,37.801 28.380,37.958 28.444 M43.042 29.416 C 42.732 29.767,42.789 29.864,43.167 29.628 C 43.350 29.513,43.500 29.363,43.500 29.293 C 43.500 29.095,43.270 29.156,43.042 29.416 M50.667 29.667 C 50.667 29.758,50.535 29.836,50.375 29.839 C 49.180 29.860,48.451 32.086,49.187 33.464 C 50.476 35.879,54.167 34.843,54.167 32.068 C 54.167 31.664,54.092 31.333,54.000 31.333 C 53.908 31.333,53.833 31.180,53.833 30.992 C 53.833 30.552,53.114 29.833,52.674 29.833 C 52.487 29.833,52.333 29.758,52.333 29.667 C 52.333 29.575,51.958 29.500,51.500 29.500 C 51.042 29.500,50.667 29.575,50.667 29.667 M34.667 41.000 C 34.667 41.092,35.084 41.167,35.593 41.167 C 36.168 41.167,36.481 41.103,36.417 41.000 C 36.360 40.908,35.943 40.833,35.490 40.833 C 35.037 40.833,34.667 40.908,34.667 41.000 M37.333 41.635 C 37.333 41.812,37.977 42.415,38.062 42.318 C 38.095 42.281,37.945 42.079,37.728 41.869 C 37.511 41.660,37.333 41.554,37.333 41.635 M45.917 42.000 C 45.860 42.092,45.697 42.167,45.554 42.167 C 44.831 42.167,44.167 43.340,44.167 44.616 C 44.167 45.285,44.224 45.833,44.294 45.833 C 44.364 45.833,44.495 46.002,44.585 46.208 C 44.676 46.415,44.919 46.657,45.125 46.748 C 45.331 46.838,45.500 46.970,45.500 47.040 C 45.500 47.109,46.025 47.167,46.667 47.167 C 47.308 47.167,47.833 47.110,47.833 47.041 C 47.833 46.971,48.058 46.815,48.333 46.693 C 48.638 46.559,48.833 46.347,48.833 46.153 C 48.833 45.977,48.900 45.833,48.981 45.833 C 49.353 45.833,49.125 43.314,48.729 43.054 C 48.519 42.916,48.301 42.660,48.245 42.485 C 48.182 42.287,47.991 42.167,47.739 42.167 C 47.516 42.167,47.333 42.092,47.333 42.000 C 47.333 41.908,47.038 41.833,46.677 41.833 C 46.315 41.833,45.973 41.908,45.917 42.000 M31.833 45.407 C 31.833 45.539,31.908 45.693,32.000 45.750 C 32.092 45.807,32.167 45.699,32.167 45.510 C 32.167 45.321,32.092 45.167,32.000 45.167 C 31.908 45.167,31.833 45.275,31.833 45.407 M32.869 47.061 C 33.079 47.278,33.281 47.428,33.318 47.395 C 33.415 47.310,32.812 46.667,32.635 46.667 C 32.554 46.667,32.660 46.844,32.869 47.061 M37.582 47.001 C 37.149 47.480,37.341 47.533,37.798 47.061 C 38.007 46.844,38.112 46.667,38.032 46.667 C 37.951 46.667,37.749 46.817,37.582 47.001 M34.250 48.000 C 34.307 48.092,34.461 48.167,34.593 48.167 C 34.725 48.167,34.833 48.092,34.833 48.000 C 34.833 47.908,34.679 47.833,34.490 47.833 C 34.301 47.833,34.193 47.908,34.250 48.000 M35.833 48.000 C 35.833 48.092,35.941 48.167,36.073 48.167 C 36.206 48.167,36.360 48.092,36.417 48.000 C 36.473 47.908,36.365 47.833,36.177 47.833 C 35.988 47.833,35.833 47.908,35.833 48.000 M48.265 56.143 C 47.998 56.299,47.698 56.575,47.598 56.755 C 47.498 56.936,47.372 57.121,47.317 57.167 C 47.031 57.405,47.209 59.824,47.519 59.923 C 47.692 59.978,48.030 60.280,48.270 60.595 C 48.900 61.421,51.167 61.374,51.167 60.535 C 51.167 60.436,51.392 60.196,51.667 60.000 C 52.447 59.445,52.338 56.833,51.535 56.833 C 51.436 56.833,51.308 56.683,51.250 56.500 C 51.182 56.287,50.998 56.167,50.739 56.167 C 50.516 56.167,50.333 56.092,50.333 56.000 C 50.333 55.728,48.790 55.834,48.265 56.143 M38.333 59.333 C 38.333 59.425,38.600 59.500,38.927 59.500 C 39.280 59.500,39.478 59.433,39.417 59.333 C 39.360 59.242,39.093 59.167,38.823 59.167 C 38.554 59.167,38.333 59.242,38.333 59.333 M36.248 60.335 C 35.986 60.609,35.826 60.833,35.893 60.833 C 36.065 60.833,36.884 59.995,36.797 59.908 C 36.758 59.869,36.511 60.061,36.248 60.335 M40.667 59.964 C 40.667 60.140,41.642 61.084,41.724 60.988 C 41.758 60.949,41.533 60.671,41.226 60.370 C 40.918 60.070,40.667 59.887,40.667 59.964 M42.167 63.000 C 42.167 63.526,42.231 63.814,42.333 63.750 C 42.425 63.693,42.500 63.356,42.500 63.000 C 42.500 62.644,42.425 62.307,42.333 62.250 C 42.231 62.186,42.167 62.474,42.167 63.000 M35.167 62.833 C 35.167 63.108,35.242 63.333,35.333 63.333 C 35.425 63.333,35.500 63.108,35.500 62.833 C 35.500 62.558,35.425 62.333,35.333 62.333 C 35.242 62.333,35.167 62.558,35.167 62.833 M35.625 64.444 C 35.740 64.490,35.833 64.672,35.833 64.847 C 35.833 65.023,35.908 65.167,36.000 65.167 C 36.211 65.167,36.210 65.059,35.994 64.656 C 35.899 64.478,35.730 64.339,35.619 64.346 C 35.467 64.356,35.468 64.380,35.625 64.444 M96.667 64.667 C 96.667 64.758,96.449 64.833,96.183 64.833 C 95.187 64.833,94.522 65.806,94.528 67.255 C 94.530 67.940,94.600 68.500,94.683 68.500 C 94.766 68.500,94.833 68.644,94.833 68.819 C 94.833 69.014,95.029 69.225,95.333 69.360 C 95.608 69.482,95.833 69.638,95.833 69.707 C 95.833 69.777,96.358 69.833,97.000 69.833 C 97.642 69.833,98.167 69.776,98.167 69.706 C 98.167 69.636,98.329 69.505,98.528 69.415 C 98.727 69.324,98.971 69.100,99.070 68.917 C 99.169 68.733,99.296 68.546,99.352 68.500 C 99.627 68.277,99.448 65.971,99.142 65.779 C 98.972 65.673,98.833 65.519,98.833 65.437 C 98.833 65.171,98.263 64.844,97.792 64.839 C 97.540 64.836,97.333 64.758,97.333 64.667 C 97.333 64.575,97.183 64.500,97.000 64.500 C 96.817 64.500,96.667 64.575,96.667 64.667 M37.583 66.333 C 37.640 66.425,37.794 66.500,37.927 66.500 C 38.059 66.500,38.167 66.425,38.167 66.333 C 38.167 66.242,38.012 66.167,37.823 66.167 C 37.635 66.167,37.527 66.242,37.583 66.333 M58.000 67.000 C 58.000 67.092,57.850 67.167,57.667 67.167 C 57.483 67.167,57.333 67.242,57.333 67.333 C 57.333 67.425,57.160 67.500,56.948 67.500 C 56.666 67.500,56.463 67.685,56.198 68.182 C 55.823 68.884,55.690 70.333,56.000 70.333 C 56.092 70.333,56.167 70.483,56.167 70.667 C 56.167 70.850,56.242 71.000,56.333 71.000 C 56.425 71.000,56.500 71.080,56.500 71.179 C 56.500 71.444,56.939 71.833,57.238 71.833 C 57.382 71.833,57.500 71.908,57.500 72.000 C 57.500 72.463,59.636 72.178,60.000 71.667 C 60.196 71.392,60.436 71.167,60.535 71.167 C 61.108 71.167,61.406 69.257,60.958 68.456 C 60.517 67.667,59.939 67.167,59.469 67.167 C 59.211 67.167,59.000 67.092,59.000 67.000 C 59.000 66.908,58.775 66.833,58.500 66.833 C 58.225 66.833,58.000 66.908,58.000 67.000 M103.333 71.000 C 103.333 71.092,103.675 71.167,104.093 71.167 C 104.557 71.167,104.813 71.102,104.750 71.000 C 104.693 70.908,104.351 70.833,103.990 70.833 C 103.629 70.833,103.333 70.908,103.333 71.000 M84.000 71.333 C 84.000 71.425,83.830 71.500,83.623 71.500 C 83.392 71.500,83.182 71.645,83.081 71.875 C 82.991 72.081,82.748 72.324,82.542 72.415 C 82.335 72.505,82.167 72.707,82.167 72.863 C 82.167 73.019,82.092 73.193,82.000 73.250 C 81.908 73.307,81.833 73.574,81.833 73.843 C 81.833 74.113,81.908 74.333,82.000 74.333 C 82.092 74.333,82.167 74.483,82.167 74.667 C 82.167 74.850,82.242 75.000,82.333 75.000 C 82.425 75.000,82.500 75.138,82.500 75.308 C 82.500 76.654,85.095 76.921,86.316 75.699 C 87.299 74.717,87.487 72.167,86.577 72.167 C 86.455 72.167,86.308 72.017,86.250 71.833 C 86.182 71.620,85.998 71.500,85.739 71.500 C 85.516 71.500,85.333 71.425,85.333 71.333 C 85.333 71.242,85.033 71.167,84.667 71.167 C 84.300 71.167,84.000 71.242,84.000 71.333 M105.346 71.286 C 105.339 71.397,105.478 71.566,105.656 71.661 C 106.059 71.877,106.167 71.878,106.167 71.667 C 106.167 71.575,106.023 71.500,105.847 71.500 C 105.672 71.500,105.490 71.406,105.444 71.292 C 105.380 71.135,105.356 71.133,105.346 71.286 M101.248 72.002 C 100.986 72.276,100.826 72.500,100.893 72.500 C 101.065 72.500,101.884 71.662,101.797 71.575 C 101.758 71.536,101.511 71.728,101.248 72.002 M69.500 72.294 C 69.500 72.364,69.331 72.495,69.125 72.585 C 68.919 72.676,68.676 72.919,68.585 73.125 C 68.495 73.331,68.364 73.500,68.294 73.500 C 68.224 73.500,68.167 74.025,68.167 74.667 C 68.167 75.333,68.238 75.833,68.333 75.833 C 68.425 75.833,68.500 75.938,68.500 76.066 C 68.500 77.135,71.811 77.631,72.376 76.645 C 72.528 76.382,72.767 76.167,72.909 76.167 C 73.073 76.167,73.167 76.015,73.167 75.750 C 73.167 75.521,73.242 75.333,73.333 75.333 C 73.625 75.333,73.513 74.199,73.158 73.568 C 72.727 72.800,72.428 72.500,72.095 72.500 C 71.951 72.500,71.833 72.425,71.833 72.333 C 71.833 72.238,71.333 72.167,70.667 72.167 C 70.025 72.167,69.500 72.224,69.500 72.294 M106.500 72.301 C 106.500 72.561,106.974 73.082,107.097 72.958 C 107.166 72.889,107.135 72.833,107.028 72.833 C 106.921 72.833,106.833 72.683,106.833 72.500 C 106.833 72.317,106.758 72.167,106.667 72.167 C 106.575 72.167,106.500 72.227,106.500 72.301 M100.278 73.611 C 100.100 73.789,100.150 75.500,100.333 75.500 C 100.426 75.500,100.500 75.056,100.500 74.500 C 100.500 73.491,100.480 73.409,100.278 73.611 M107.167 74.240 C 107.167 74.658,107.242 75.000,107.333 75.000 C 107.425 75.000,107.500 74.704,107.500 74.343 C 107.500 73.982,107.425 73.640,107.333 73.583 C 107.232 73.520,107.167 73.776,107.167 74.240 M51.500 74.333 C 51.500 74.425,51.654 74.500,51.843 74.500 C 52.032 74.500,52.140 74.425,52.083 74.333 C 52.027 74.242,51.872 74.167,51.740 74.167 C 51.608 74.167,51.500 74.242,51.500 74.333 M52.500 74.568 C 52.500 74.716,53.673 75.882,53.747 75.808 C 53.816 75.739,53.193 75.013,52.786 74.688 C 52.629 74.562,52.500 74.508,52.500 74.568 M106.192 76.938 C 105.976 77.168,105.832 77.387,105.870 77.426 C 105.909 77.465,106.156 77.272,106.418 76.998 C 106.681 76.724,106.825 76.505,106.740 76.510 C 106.654 76.516,106.407 76.708,106.192 76.938 M102.917 78.000 C 102.973 78.092,103.315 78.167,103.677 78.167 C 104.038 78.167,104.333 78.092,104.333 78.000 C 104.333 77.908,103.991 77.833,103.573 77.833 C 103.109 77.833,102.854 77.898,102.917 78.000 M47.762 79.603 C 47.951 79.775,48.159 80.059,48.224 80.232 C 48.288 80.406,48.391 80.498,48.451 80.438 C 48.591 80.297,47.974 79.462,47.657 79.363 C 47.522 79.321,47.568 79.426,47.762 79.603 M52.708 80.416 C 52.399 80.767,52.456 80.864,52.833 80.628 C 53.017 80.513,53.167 80.363,53.167 80.293 C 53.167 80.095,52.937 80.156,52.708 80.416 M87.000 80.667 C 87.000 80.758,87.267 80.833,87.593 80.833 C 87.946 80.833,88.145 80.766,88.083 80.667 C 88.027 80.575,87.760 80.500,87.490 80.500 C 87.221 80.500,87.000 80.575,87.000 80.667 M85.833 80.972 C 85.833 81.079,85.683 81.167,85.500 81.167 C 85.317 81.167,85.167 81.242,85.167 81.333 C 85.167 81.566,85.380 81.541,85.760 81.264 C 85.937 81.134,86.027 80.971,85.958 80.903 C 85.889 80.834,85.833 80.865,85.833 80.972 M89.336 81.221 C 89.332 81.440,90.337 82.385,90.452 82.270 C 90.509 82.213,90.468 82.167,90.361 82.167 C 90.254 82.167,90.167 82.052,90.167 81.911 C 90.167 81.771,90.035 81.608,89.875 81.549 C 89.715 81.489,89.528 81.361,89.461 81.262 C 89.394 81.164,89.337 81.145,89.336 81.221 M65.536 82.939 C 65.326 83.156,65.221 83.333,65.302 83.333 C 65.479 83.333,66.082 82.690,65.985 82.605 C 65.947 82.572,65.745 82.722,65.536 82.939 M70.333 82.635 C 70.333 82.812,70.977 83.415,71.062 83.318 C 71.095 83.281,70.945 83.079,70.728 82.869 C 70.511 82.660,70.333 82.554,70.333 82.635 M90.833 83.907 C 90.833 84.141,90.908 84.333,91.000 84.333 C 91.092 84.333,91.167 84.188,91.167 84.010 C 91.167 83.832,91.092 83.640,91.000 83.583 C 90.905 83.525,90.833 83.665,90.833 83.907 M71.500 84.490 C 71.500 84.679,71.575 84.833,71.667 84.833 C 71.758 84.833,71.833 84.725,71.833 84.593 C 71.833 84.461,71.758 84.307,71.667 84.250 C 71.575 84.193,71.500 84.301,71.500 84.490 M64.500 85.250 C 64.500 85.662,64.575 86.000,64.667 86.000 C 64.758 86.000,64.833 85.662,64.833 85.250 C 64.833 84.837,64.758 84.500,64.667 84.500 C 64.575 84.500,64.500 84.837,64.500 85.250 M71.500 86.177 C 71.500 86.365,71.575 86.473,71.667 86.417 C 71.758 86.360,71.833 86.206,71.833 86.073 C 71.833 85.941,71.758 85.833,71.667 85.833 C 71.575 85.833,71.500 85.988,71.500 86.177 M89.752 86.498 C 89.489 86.772,89.306 87.024,89.345 87.057 C 89.385 87.091,89.663 86.867,89.963 86.559 C 90.264 86.252,90.446 86.000,90.369 86.000 C 90.292 86.000,90.014 86.224,89.752 86.498 M84.869 86.728 C 85.079 86.945,85.281 87.095,85.318 87.062 C 85.415 86.977,84.812 86.333,84.635 86.333 C 84.554 86.333,84.660 86.511,84.869 86.728 M70.582 87.668 C 70.149 88.146,70.341 88.200,70.798 87.728 C 71.007 87.511,71.112 87.333,71.032 87.333 C 70.951 87.333,70.749 87.484,70.582 87.668 M86.667 87.667 C 86.667 87.758,86.967 87.833,87.333 87.833 C 87.700 87.833,88.000 87.758,88.000 87.667 C 88.000 87.575,87.700 87.500,87.333 87.500 C 86.967 87.500,86.667 87.575,86.667 87.667 M66.917 88.667 C 66.973 88.758,67.128 88.833,67.260 88.833 C 67.392 88.833,67.500 88.758,67.500 88.667 C 67.500 88.575,67.346 88.500,67.157 88.500 C 66.968 88.500,66.860 88.575,66.917 88.667 " stroke="none" fill="#aca4ec" fill-rule="evenodd"></path><path id="path1" d="M71.833 4.659 C 71.833 4.733,71.593 4.893,71.299 5.014 C 70.624 5.294,70.294 5.624,70.014 6.299 C 69.893 6.593,69.727 6.833,69.646 6.833 C 69.566 6.833,69.500 7.283,69.500 7.833 C 69.500 8.389,69.574 8.833,69.667 8.833 C 69.758 8.833,69.833 8.975,69.833 9.147 C 69.833 9.459,71.072 10.833,71.353 10.833 C 71.434 10.833,71.500 10.908,71.500 11.000 C 71.500 11.099,72.111 11.167,73.000 11.167 C 73.889 11.167,74.500 11.099,74.500 11.000 C 74.500 10.908,74.575 10.833,74.667 10.833 C 74.971 10.833,76.167 9.505,76.167 9.167 C 76.167 8.983,76.242 8.833,76.333 8.833 C 76.426 8.833,76.500 8.389,76.500 7.833 C 76.500 7.278,76.426 6.833,76.333 6.833 C 76.242 6.833,76.167 6.642,76.167 6.409 C 76.167 5.903,75.574 5.263,74.963 5.110 C 74.721 5.049,74.419 4.896,74.292 4.769 C 74.042 4.519,71.833 4.420,71.833 4.659 M90.500 8.000 C 90.500 8.092,90.422 8.167,90.328 8.167 C 90.160 8.167,89.641 8.673,88.875 9.583 C 88.473 10.060,88.299 12.500,88.667 12.500 C 88.758 12.500,88.836 12.631,88.838 12.792 C 88.841 12.952,89.073 13.271,89.353 13.500 C 89.633 13.729,90.006 14.048,90.181 14.208 C 90.357 14.369,90.725 14.500,91.000 14.500 C 91.275 14.500,91.500 14.575,91.500 14.667 C 91.500 14.758,91.650 14.833,91.833 14.833 C 92.017 14.833,92.167 14.758,92.167 14.667 C 92.167 14.575,92.467 14.500,92.833 14.500 C 93.200 14.500,93.500 14.425,93.500 14.333 C 93.500 14.242,93.575 14.167,93.667 14.167 C 93.758 14.167,93.971 14.035,94.139 13.875 C 94.307 13.715,94.607 13.473,94.806 13.338 C 95.069 13.159,95.167 12.922,95.167 12.463 C 95.167 12.117,95.242 11.833,95.333 11.833 C 95.425 11.833,95.500 11.608,95.500 11.333 C 95.500 11.058,95.425 10.833,95.333 10.833 C 95.242 10.833,95.167 10.608,95.167 10.333 C 95.167 9.893,94.988 9.588,94.367 8.967 C 93.780 8.380,93.460 8.167,93.167 8.167 C 92.983 8.167,92.833 8.092,92.833 8.000 C 92.833 7.905,92.333 7.833,91.667 7.833 C 91.000 7.833,90.500 7.905,90.500 8.000 M53.167 10.333 C 53.167 10.425,53.035 10.501,52.875 10.502 C 52.696 10.504,52.357 10.890,52.000 11.500 C 51.679 12.047,51.360 12.496,51.292 12.498 C 51.101 12.501,51.142 14.500,51.333 14.500 C 51.425 14.500,51.500 14.690,51.500 14.922 C 51.500 15.392,52.491 16.500,52.911 16.500 C 53.052 16.500,53.167 16.575,53.167 16.667 C 53.167 16.948,55.650 16.874,55.940 16.584 C 56.078 16.446,56.390 16.284,56.635 16.222 C 57.170 16.088,57.500 15.785,57.500 15.429 C 57.500 15.285,57.575 15.167,57.667 15.167 C 57.758 15.167,57.833 15.017,57.833 14.833 C 57.833 14.650,57.908 14.500,58.000 14.500 C 58.095 14.500,58.167 14.000,58.167 13.333 C 58.167 12.667,58.095 12.167,58.000 12.167 C 57.908 12.167,57.833 12.054,57.833 11.917 C 57.833 11.779,57.757 11.667,57.663 11.667 C 57.569 11.667,57.410 11.484,57.308 11.261 C 57.207 11.038,56.908 10.767,56.645 10.658 C 56.382 10.549,56.167 10.394,56.167 10.313 C 56.167 10.233,55.492 10.167,54.667 10.167 C 53.778 10.167,53.167 10.235,53.167 10.333 M106.500 19.333 C 106.500 19.425,106.283 19.500,106.017 19.500 C 105.437 19.500,103.833 20.968,103.833 21.499 C 103.833 21.683,103.758 21.833,103.667 21.833 C 103.575 21.833,103.500 22.208,103.500 22.667 C 103.500 23.125,103.575 23.500,103.667 23.500 C 103.758 23.500,103.833 23.725,103.833 24.000 C 103.833 24.275,103.908 24.500,104.000 24.500 C 104.092 24.500,104.167 24.650,104.167 24.833 C 104.167 25.056,104.278 25.167,104.500 25.167 C 104.683 25.167,104.833 25.233,104.833 25.313 C 104.833 25.394,105.058 25.553,105.333 25.667 C 105.608 25.781,105.833 25.940,105.833 26.020 C 105.833 26.101,106.433 26.167,107.167 26.167 C 107.944 26.167,108.500 26.097,108.500 26.000 C 108.500 25.908,108.583 25.833,108.684 25.833 C 108.786 25.833,109.013 25.650,109.189 25.427 C 109.365 25.203,109.657 24.973,109.838 24.915 C 110.067 24.843,110.167 24.662,110.167 24.322 C 110.167 24.053,110.242 23.833,110.333 23.833 C 110.426 23.833,110.500 23.389,110.500 22.833 C 110.500 22.278,110.426 21.833,110.333 21.833 C 110.242 21.833,110.167 21.613,110.167 21.345 C 110.167 21.004,110.067 20.824,109.838 20.751 C 109.657 20.694,109.365 20.464,109.189 20.240 C 109.013 20.016,108.786 19.833,108.684 19.833 C 108.583 19.833,108.500 19.758,108.500 19.667 C 108.500 19.575,108.200 19.500,107.833 19.500 C 107.467 19.500,107.167 19.425,107.167 19.333 C 107.167 19.242,107.017 19.167,106.833 19.167 C 106.650 19.167,106.500 19.242,106.500 19.333 M40.029 23.430 C 39.907 23.567,39.597 23.722,39.339 23.774 C 39.065 23.829,38.796 24.033,38.689 24.267 C 38.589 24.487,38.431 24.667,38.337 24.667 C 38.243 24.667,38.167 24.779,38.167 24.917 C 38.167 25.054,38.092 25.167,38.000 25.167 C 37.908 25.167,37.833 25.392,37.833 25.667 C 37.833 25.942,37.758 26.167,37.667 26.167 C 37.575 26.167,37.500 26.392,37.500 26.667 C 37.500 26.942,37.575 27.167,37.667 27.167 C 37.758 27.167,37.833 27.392,37.833 27.667 C 37.833 27.942,37.965 28.310,38.125 28.486 C 38.285 28.661,38.604 29.034,38.833 29.314 C 39.063 29.594,39.381 29.826,39.542 29.828 C 39.702 29.831,39.833 29.908,39.833 30.000 C 39.833 30.095,40.333 30.167,41.000 30.167 C 41.667 30.167,42.167 30.095,42.167 30.000 C 42.167 29.908,42.300 29.833,42.463 29.833 C 42.626 29.833,42.868 29.683,43.000 29.500 C 43.132 29.317,43.374 29.167,43.537 29.167 C 43.722 29.167,43.833 29.042,43.833 28.833 C 43.833 28.650,43.908 28.500,44.000 28.500 C 44.092 28.500,44.167 28.350,44.167 28.167 C 44.167 27.983,44.235 27.833,44.319 27.833 C 44.638 27.833,44.492 25.492,44.152 25.152 C 43.977 24.977,43.833 24.717,43.833 24.576 C 43.833 24.171,43.059 23.500,42.591 23.500 C 42.358 23.500,42.167 23.425,42.167 23.333 C 42.167 23.058,40.282 23.143,40.029 23.430 M33.833 41.333 C 33.833 41.425,33.695 41.500,33.527 41.500 C 33.358 41.500,33.135 41.688,33.030 41.917 C 32.926 42.146,32.764 42.333,32.670 42.333 C 32.577 42.333,32.500 42.446,32.500 42.583 C 32.500 42.721,32.425 42.833,32.333 42.833 C 32.242 42.833,32.167 43.058,32.167 43.333 C 32.167 43.608,32.092 43.833,32.000 43.833 C 31.908 43.833,31.833 44.133,31.833 44.500 C 31.833 44.867,31.908 45.167,32.000 45.167 C 32.092 45.167,32.167 45.392,32.167 45.667 C 32.167 45.942,32.242 46.167,32.333 46.167 C 32.425 46.167,32.500 46.236,32.500 46.321 C 32.500 46.521,33.479 47.500,33.679 47.500 C 33.764 47.500,33.833 47.575,33.833 47.667 C 33.833 47.758,34.058 47.833,34.333 47.833 C 34.608 47.833,34.833 47.908,34.833 48.000 C 34.833 48.092,35.058 48.167,35.333 48.167 C 35.608 48.167,35.833 48.092,35.833 48.000 C 35.833 47.908,36.121 47.833,36.473 47.833 C 36.997 47.833,37.148 47.756,37.307 47.409 C 37.413 47.176,37.724 46.857,37.999 46.701 C 38.363 46.494,38.498 46.292,38.499 45.958 C 38.500 45.706,38.575 45.500,38.667 45.500 C 38.759 45.500,38.833 45.056,38.833 44.500 C 38.833 43.944,38.759 43.500,38.667 43.500 C 38.575 43.500,38.500 43.280,38.500 43.011 C 38.500 42.671,38.400 42.491,38.171 42.418 C 37.990 42.361,37.698 42.131,37.522 41.907 C 37.346 41.683,37.119 41.500,37.018 41.500 C 36.916 41.500,36.833 41.425,36.833 41.333 C 36.833 41.235,36.222 41.167,35.333 41.167 C 34.444 41.167,33.833 41.235,33.833 41.333 M37.500 59.667 C 37.500 59.758,37.385 59.833,37.244 59.833 C 36.913 59.833,35.833 60.913,35.833 61.244 C 35.833 61.385,35.758 61.500,35.667 61.500 C 35.321 61.500,35.467 64.134,35.833 64.500 C 36.017 64.683,36.167 64.951,36.167 65.095 C 36.167 65.432,36.568 65.833,36.905 65.833 C 37.049 65.833,37.167 65.908,37.167 66.000 C 37.167 66.092,37.392 66.167,37.667 66.167 C 37.942 66.167,38.167 66.242,38.167 66.333 C 38.167 66.425,38.542 66.500,39.000 66.500 C 39.458 66.500,39.833 66.425,39.833 66.333 C 39.833 66.242,39.983 66.167,40.167 66.167 C 40.350 66.167,40.500 66.092,40.500 66.000 C 40.500 65.908,40.616 65.833,40.758 65.833 C 41.091 65.833,41.833 65.091,41.833 64.758 C 41.833 64.616,41.908 64.500,42.000 64.500 C 42.099 64.500,42.167 63.889,42.167 63.000 C 42.167 62.111,42.099 61.500,42.000 61.500 C 41.908 61.500,41.833 61.434,41.833 61.353 C 41.833 61.161,40.505 59.833,40.314 59.833 C 40.233 59.833,40.167 59.758,40.167 59.667 C 40.167 59.569,39.611 59.500,38.833 59.500 C 38.056 59.500,37.500 59.569,37.500 59.667 M102.500 71.333 C 102.500 71.425,102.385 71.500,102.244 71.500 C 101.913 71.500,100.833 72.579,100.833 72.911 C 100.833 73.052,100.758 73.167,100.667 73.167 C 100.568 73.167,100.500 73.778,100.500 74.667 C 100.500 75.556,100.568 76.167,100.667 76.167 C 100.758 76.167,100.833 76.305,100.833 76.473 C 100.833 76.642,101.021 76.865,101.250 76.970 C 101.479 77.074,101.667 77.236,101.667 77.330 C 101.667 77.423,101.779 77.500,101.917 77.500 C 102.054 77.500,102.167 77.575,102.167 77.667 C 102.167 77.765,102.778 77.833,103.667 77.833 C 104.556 77.833,105.167 77.765,105.167 77.667 C 105.167 77.575,105.282 77.500,105.422 77.500 C 105.754 77.500,106.833 76.421,106.833 76.089 C 106.833 75.948,106.908 75.833,107.000 75.833 C 107.346 75.833,107.199 73.199,106.833 72.833 C 106.650 72.650,106.500 72.350,106.500 72.167 C 106.500 71.944,106.389 71.833,106.167 71.833 C 105.983 71.833,105.683 71.683,105.500 71.500 C 105.134 71.134,102.500 70.988,102.500 71.333 M49.500 74.333 C 49.500 74.425,49.350 74.500,49.167 74.500 C 48.983 74.500,48.833 74.575,48.833 74.667 C 48.833 74.758,48.715 74.833,48.571 74.833 C 48.235 74.833,47.833 75.235,47.833 75.571 C 47.833 75.715,47.758 75.833,47.667 75.833 C 47.575 75.833,47.500 75.983,47.500 76.167 C 47.500 76.350,47.425 76.500,47.333 76.500 C 47.241 76.500,47.167 76.944,47.167 77.500 C 47.167 78.056,47.241 78.500,47.333 78.500 C 47.425 78.500,47.500 78.644,47.500 78.821 C 47.500 78.997,47.706 79.356,47.958 79.619 C 48.210 79.881,48.527 80.262,48.662 80.465 C 48.817 80.698,49.077 80.833,49.370 80.833 C 49.625 80.833,49.833 80.908,49.833 81.000 C 49.833 81.093,50.278 81.167,50.833 81.167 C 51.389 81.167,51.833 81.093,51.833 81.000 C 51.833 80.908,51.967 80.833,52.130 80.833 C 52.293 80.833,52.535 80.683,52.667 80.500 C 52.799 80.317,53.040 80.167,53.203 80.167 C 53.389 80.167,53.500 80.042,53.500 79.833 C 53.500 79.650,53.575 79.500,53.667 79.500 C 53.758 79.500,53.833 79.350,53.833 79.167 C 53.833 78.983,53.908 78.833,54.000 78.833 C 54.095 78.833,54.167 78.333,54.167 77.667 C 54.167 77.000,54.095 76.500,54.000 76.500 C 53.908 76.500,53.833 76.386,53.833 76.246 C 53.833 75.816,52.392 74.500,51.921 74.500 C 51.689 74.500,51.500 74.425,51.500 74.333 C 51.500 74.241,51.056 74.167,50.500 74.167 C 49.944 74.167,49.500 74.241,49.500 74.333 M85.942 81.078 C 85.890 81.213,85.639 81.376,85.384 81.440 C 84.832 81.578,84.500 81.878,84.500 82.238 C 84.500 82.382,84.425 82.500,84.333 82.500 C 84.242 82.500,84.167 82.650,84.167 82.833 C 84.167 83.017,84.092 83.167,84.000 83.167 C 83.907 83.167,83.833 83.611,83.833 84.167 C 83.833 84.722,83.907 85.167,84.000 85.167 C 84.092 85.167,84.167 85.387,84.167 85.655 C 84.167 85.996,84.267 86.176,84.496 86.249 C 84.677 86.306,84.969 86.536,85.145 86.760 C 85.321 86.984,85.548 87.167,85.649 87.167 C 85.750 87.167,85.833 87.242,85.833 87.333 C 85.833 87.432,86.444 87.500,87.333 87.500 C 88.222 87.500,88.833 87.432,88.833 87.333 C 88.833 87.242,88.900 87.167,88.980 87.167 C 89.061 87.167,89.436 86.858,89.814 86.480 C 90.191 86.103,90.500 85.728,90.500 85.647 C 90.500 85.566,90.575 85.500,90.667 85.500 C 90.764 85.500,90.833 84.944,90.833 84.167 C 90.833 83.389,90.764 82.833,90.667 82.833 C 90.575 82.833,90.500 82.758,90.500 82.667 C 90.500 82.575,90.200 82.200,89.833 81.833 C 89.467 81.467,89.092 81.167,89.000 81.167 C 88.908 81.167,88.833 81.092,88.833 81.000 C 88.833 80.713,86.053 80.788,85.942 81.078 M67.167 82.000 C 67.167 82.092,66.947 82.167,66.678 82.167 C 66.338 82.167,66.157 82.267,66.085 82.496 C 66.027 82.677,65.797 82.969,65.573 83.145 C 65.350 83.321,65.167 83.548,65.167 83.649 C 65.167 83.750,65.092 83.833,65.000 83.833 C 64.901 83.833,64.833 84.444,64.833 85.333 C 64.833 86.222,64.901 86.833,65.000 86.833 C 65.092 86.833,65.167 86.971,65.167 87.140 C 65.167 87.309,65.354 87.532,65.583 87.636 C 65.813 87.741,66.000 87.903,66.000 87.996 C 66.000 88.090,66.112 88.167,66.250 88.167 C 66.387 88.167,66.500 88.242,66.500 88.333 C 66.500 88.425,66.725 88.500,67.000 88.500 C 67.275 88.500,67.500 88.575,67.500 88.667 C 67.500 88.758,67.875 88.833,68.333 88.833 C 68.792 88.833,69.167 88.758,69.167 88.667 C 69.167 88.575,69.380 88.500,69.640 88.500 C 69.985 88.500,70.165 88.385,70.307 88.076 C 70.413 87.842,70.724 87.523,70.999 87.367 C 71.413 87.131,71.498 86.978,71.499 86.458 C 71.500 86.115,71.575 85.833,71.667 85.833 C 71.758 85.833,71.833 85.608,71.833 85.333 C 71.833 85.058,71.758 84.833,71.667 84.833 C 71.575 84.833,71.500 84.608,71.500 84.333 C 71.500 84.058,71.425 83.833,71.333 83.833 C 71.242 83.833,71.167 83.750,71.167 83.649 C 71.167 83.548,70.984 83.321,70.760 83.145 C 70.536 82.969,70.306 82.677,70.249 82.496 C 70.176 82.267,69.996 82.167,69.655 82.167 C 69.387 82.167,69.167 82.092,69.167 82.000 C 69.167 81.907,68.722 81.833,68.167 81.833 C 67.611 81.833,67.167 81.907,67.167 82.000 " stroke="none" fill="#b3e9fb" fill-rule="evenodd"></path><path id="path2" d="M286.167 44.667 L 286.167 45.833 287.833 45.833 L 289.500 45.833 289.500 44.667 L 289.500 43.500 287.833 43.500 L 286.167 43.500 286.167 44.667 M214.708 44.749 C 214.594 44.879,214.500 45.177,214.500 45.410 C 214.500 45.643,214.425 45.833,214.333 45.833 C 214.242 45.833,214.167 46.101,214.167 46.429 C 214.167 47.226,213.850 47.500,212.929 47.500 L 212.167 47.500 212.167 48.667 L 212.167 49.833 213.000 49.833 L 213.833 49.833 213.833 53.500 C 213.833 55.833,213.894 57.167,214.000 57.167 C 214.092 57.167,214.167 57.282,214.167 57.422 C 214.167 57.754,215.246 58.833,215.578 58.833 C 215.718 58.833,215.833 58.908,215.833 59.000 C 215.833 59.104,216.778 59.167,218.333 59.167 C 219.889 59.167,220.833 59.104,220.833 59.000 C 220.833 58.908,220.983 58.833,221.167 58.833 C 221.587 58.833,221.664 57.140,221.262 56.738 C 220.991 56.468,220.167 56.414,220.167 56.667 C 220.167 56.762,219.667 56.833,219.000 56.833 C 218.333 56.833,217.833 56.762,217.833 56.667 C 217.833 56.575,217.683 56.500,217.500 56.500 C 217.178 56.500,217.167 56.389,217.167 53.167 L 217.167 49.833 219.000 49.833 L 220.833 49.833 220.833 48.667 L 220.833 47.500 219.000 47.500 L 217.167 47.500 217.167 46.000 L 217.167 44.500 216.042 44.506 C 215.286 44.511,214.848 44.590,214.708 44.749 M257.375 44.749 C 257.260 44.879,257.167 45.177,257.167 45.410 C 257.167 45.643,257.092 45.833,257.000 45.833 C 256.908 45.833,256.833 46.101,256.833 46.429 C 256.833 47.226,256.517 47.500,255.595 47.500 L 254.833 47.500 254.833 48.667 L 254.833 49.833 255.667 49.833 L 256.500 49.833 256.500 53.500 C 256.500 55.833,256.561 57.167,256.667 57.167 C 256.758 57.167,256.833 57.282,256.833 57.422 C 256.833 57.754,257.913 58.833,258.244 58.833 C 258.385 58.833,258.500 58.908,258.500 59.000 C 258.500 59.104,259.444 59.167,261.000 59.167 C 262.556 59.167,263.500 59.104,263.500 59.000 C 263.500 58.908,263.650 58.833,263.833 58.833 C 264.253 58.833,264.330 57.140,263.929 56.738 C 263.658 56.468,262.833 56.414,262.833 56.667 C 262.833 56.762,262.333 56.833,261.667 56.833 C 261.000 56.833,260.500 56.762,260.500 56.667 C 260.500 56.575,260.350 56.500,260.167 56.500 C 259.844 56.500,259.833 56.389,259.833 53.167 L 259.833 49.833 261.667 49.833 L 263.500 49.833 263.500 48.667 L 263.500 47.500 261.667 47.500 L 259.833 47.500 259.833 46.000 L 259.833 44.500 258.708 44.506 C 257.952 44.511,257.515 44.590,257.375 44.749 M356.042 44.749 C 355.927 44.879,355.833 45.177,355.833 45.410 C 355.833 45.643,355.758 45.833,355.667 45.833 C 355.575 45.833,355.500 46.101,355.500 46.429 C 355.500 47.226,355.184 47.500,354.262 47.500 L 353.500 47.500 353.500 48.667 L 353.500 49.833 354.333 49.833 L 355.167 49.833 355.167 53.500 C 355.167 55.833,355.227 57.167,355.333 57.167 C 355.425 57.167,355.500 57.282,355.500 57.422 C 355.500 57.754,356.579 58.833,356.911 58.833 C 357.052 58.833,357.167 58.908,357.167 59.000 C 357.167 59.104,358.111 59.167,359.667 59.167 C 361.222 59.167,362.167 59.104,362.167 59.000 C 362.167 58.908,362.317 58.833,362.500 58.833 C 362.920 58.833,362.997 57.140,362.595 56.738 C 362.325 56.468,361.500 56.414,361.500 56.667 C 361.500 56.762,361.000 56.833,360.333 56.833 C 359.667 56.833,359.167 56.762,359.167 56.667 C 359.167 56.575,359.017 56.500,358.833 56.500 C 358.511 56.500,358.500 56.389,358.500 53.167 L 358.500 49.833 360.333 49.833 L 362.167 49.833 362.167 48.667 L 362.167 47.500 360.333 47.500 L 358.500 47.500 358.500 46.000 L 358.500 44.500 357.375 44.506 C 356.619 44.511,356.182 44.590,356.042 44.749 M116.167 45.167 C 116.167 45.350,116.092 45.500,116.000 45.500 C 115.908 45.500,115.833 45.725,115.833 46.000 C 115.833 46.275,115.758 46.500,115.667 46.500 C 115.575 46.500,115.500 46.725,115.500 47.000 C 115.500 47.275,115.425 47.500,115.333 47.500 C 115.242 47.500,115.167 47.725,115.167 48.000 C 115.167 48.275,115.092 48.500,115.000 48.500 C 114.908 48.500,114.833 48.725,114.833 49.000 C 114.833 49.275,114.758 49.500,114.667 49.500 C 114.575 49.500,114.500 49.725,114.500 50.000 C 114.500 50.275,114.425 50.500,114.333 50.500 C 114.242 50.500,114.167 50.725,114.167 51.000 C 114.167 51.275,114.092 51.500,114.000 51.500 C 113.908 51.500,113.833 51.725,113.833 52.000 C 113.833 52.275,113.758 52.500,113.667 52.500 C 113.575 52.500,113.500 52.800,113.500 53.167 C 113.500 53.533,113.425 53.833,113.333 53.833 C 113.242 53.833,113.167 54.058,113.167 54.333 C 113.167 54.608,113.092 54.833,113.000 54.833 C 112.908 54.833,112.833 55.058,112.833 55.333 C 112.833 55.608,112.758 55.833,112.667 55.833 C 112.575 55.833,112.500 56.058,112.500 56.333 C 112.500 56.608,112.425 56.833,112.333 56.833 C 112.242 56.833,112.167 57.058,112.167 57.333 C 112.167 57.608,112.092 57.833,112.000 57.833 C 111.908 57.833,111.833 58.058,111.833 58.333 L 111.833 58.833 113.429 58.833 C 115.244 58.833,115.500 58.701,115.500 57.762 C 115.500 57.435,115.575 57.167,115.667 57.167 C 115.758 57.167,115.833 56.899,115.833 56.571 C 115.833 55.607,116.067 55.500,118.167 55.500 C 120.190 55.500,120.500 55.620,120.500 56.405 C 120.500 56.640,120.575 56.833,120.667 56.833 C 120.758 56.833,120.833 57.133,120.833 57.500 C 120.833 57.867,120.908 58.167,121.000 58.167 C 121.092 58.167,121.167 58.317,121.167 58.500 C 121.167 58.811,121.278 58.833,122.833 58.833 L 124.500 58.833 124.500 58.167 C 124.500 57.800,124.425 57.500,124.333 57.500 C 124.242 57.500,124.167 57.275,124.167 57.000 C 124.167 56.725,124.092 56.500,124.000 56.500 C 123.908 56.500,123.833 56.275,123.833 56.000 C 123.833 55.725,123.758 55.500,123.667 55.500 C 123.575 55.500,123.500 55.275,123.500 55.000 C 123.500 54.725,123.425 54.500,123.333 54.500 C 123.242 54.500,123.167 54.275,123.167 54.000 C 123.167 53.725,123.092 53.500,123.000 53.500 C 122.908 53.500,122.833 53.275,122.833 53.000 C 122.833 52.725,122.758 52.500,122.667 52.500 C 122.575 52.500,122.500 52.275,122.500 52.000 C 122.500 51.725,122.425 51.500,122.333 51.500 C 122.242 51.500,122.167 51.275,122.167 51.000 C 122.167 50.725,122.092 50.500,122.000 50.500 C 121.908 50.500,121.833 50.275,121.833 50.000 C 121.833 49.725,121.758 49.500,121.667 49.500 C 121.575 49.500,121.500 49.275,121.500 49.000 C 121.500 48.725,121.425 48.500,121.333 48.500 C 121.242 48.500,121.167 48.200,121.167 47.833 C 121.167 47.467,121.092 47.167,121.000 47.167 C 120.908 47.167,120.833 46.942,120.833 46.667 C 120.833 46.392,120.758 46.167,120.667 46.167 C 120.575 46.167,120.500 45.974,120.500 45.738 C 120.500 44.948,120.195 44.833,118.095 44.833 C 116.278 44.833,116.167 44.853,116.167 45.167 M183.833 51.833 L 183.833 58.833 189.167 58.833 L 194.500 58.833 194.500 57.500 L 194.500 56.167 190.833 56.167 L 187.167 56.167 187.167 54.667 L 187.167 53.167 190.333 53.167 L 193.500 53.167 193.500 51.833 L 193.500 50.500 190.458 50.480 C 188.785 50.469,187.360 50.469,187.292 50.480 C 187.223 50.491,187.167 49.825,187.167 49.000 L 187.167 47.500 190.667 47.500 L 194.167 47.500 194.167 46.167 L 194.167 44.833 189.000 44.833 L 183.833 44.833 183.833 51.833 M130.500 47.333 C 130.500 47.425,130.275 47.500,130.000 47.500 C 129.725 47.500,129.500 47.575,129.500 47.667 C 129.500 47.758,129.384 47.833,129.242 47.833 C 128.927 47.833,128.167 48.568,128.167 48.872 C 128.167 48.994,128.017 49.201,127.833 49.333 C 127.650 49.465,127.500 49.707,127.500 49.870 C 127.500 50.033,127.425 50.167,127.333 50.167 C 127.242 50.167,127.167 50.467,127.167 50.833 C 127.167 51.200,127.092 51.500,127.000 51.500 C 126.900 51.500,126.833 52.167,126.833 53.167 C 126.833 54.167,126.900 54.833,127.000 54.833 C 127.092 54.833,127.167 55.133,127.167 55.500 C 127.167 55.867,127.242 56.167,127.333 56.167 C 127.425 56.167,127.500 56.300,127.500 56.463 C 127.500 56.626,127.650 56.868,127.833 57.000 C 128.017 57.132,128.167 57.340,128.167 57.461 C 128.167 57.765,128.927 58.500,129.242 58.500 C 129.384 58.500,129.500 58.575,129.500 58.667 C 129.500 58.758,129.650 58.833,129.833 58.833 C 130.017 58.833,130.167 58.908,130.167 59.000 C 130.167 59.102,130.944 59.167,132.167 59.167 C 133.389 59.167,134.167 59.102,134.167 59.000 C 134.167 58.908,134.362 58.833,134.600 58.833 C 134.866 58.833,135.213 58.641,135.500 58.333 C 135.757 58.058,136.087 57.833,136.234 57.833 C 136.380 57.833,136.500 57.700,136.500 57.537 C 136.500 57.374,136.650 57.132,136.833 57.000 C 137.029 56.859,137.167 56.569,137.167 56.297 C 137.167 56.042,137.242 55.833,137.333 55.833 C 137.425 55.833,137.500 55.608,137.500 55.333 L 137.500 54.833 135.905 54.833 C 134.200 54.833,133.833 54.981,133.833 55.667 C 133.833 56.086,133.467 56.500,133.095 56.500 C 132.951 56.500,132.833 56.575,132.833 56.667 C 132.833 56.758,132.608 56.833,132.333 56.833 C 132.058 56.833,131.833 56.758,131.833 56.667 C 131.833 56.575,131.715 56.500,131.571 56.500 C 131.235 56.500,130.833 56.099,130.833 55.762 C 130.833 55.618,130.758 55.500,130.667 55.500 C 130.563 55.500,130.500 54.611,130.500 53.167 C 130.500 51.722,130.563 50.833,130.667 50.833 C 130.758 50.833,130.833 50.715,130.833 50.571 C 130.833 50.427,130.940 50.202,131.071 50.071 C 131.202 49.940,131.427 49.833,131.571 49.833 C 131.715 49.833,131.833 49.758,131.833 49.667 C 131.833 49.575,132.058 49.500,132.333 49.500 C 132.608 49.500,132.833 49.575,132.833 49.667 C 132.833 49.758,132.951 49.833,133.095 49.833 C 133.489 49.833,133.833 50.256,133.833 50.738 L 133.833 51.167 135.500 51.167 L 137.167 51.167 137.167 50.370 C 137.167 49.765,137.087 49.516,136.833 49.333 C 136.650 49.201,136.500 48.992,136.500 48.868 C 136.500 48.578,136.089 48.167,135.799 48.167 C 135.675 48.167,135.465 48.017,135.333 47.833 C 135.192 47.638,134.902 47.500,134.630 47.500 C 134.375 47.500,134.167 47.425,134.167 47.333 C 134.167 47.232,133.444 47.167,132.333 47.167 C 131.222 47.167,130.500 47.232,130.500 47.333 M143.939 47.544 C 143.728 47.797,143.603 47.850,143.550 47.708 C 143.497 47.566,143.056 47.500,142.153 47.500 L 140.833 47.500 140.833 53.167 L 140.833 58.833 142.167 58.833 L 143.500 58.833 143.500 55.333 C 143.500 53.111,143.561 51.833,143.667 51.833 C 143.758 51.833,143.833 51.458,143.833 51.000 C 143.833 50.542,143.908 50.167,144.000 50.167 C 144.092 50.167,144.167 50.017,144.167 49.833 C 144.167 49.611,144.278 49.500,144.500 49.500 C 144.722 49.500,144.833 49.611,144.833 49.833 C 144.833 50.017,144.908 50.167,145.000 50.167 C 145.107 50.167,145.167 51.722,145.167 54.500 L 145.167 58.833 146.500 58.833 L 147.833 58.833 147.833 55.000 C 147.833 52.556,147.894 51.167,148.000 51.167 C 148.092 51.167,148.167 50.899,148.167 50.571 C 148.167 49.941,148.471 49.500,148.905 49.500 C 149.085 49.500,149.167 49.657,149.167 50.000 C 149.167 50.275,149.242 50.500,149.333 50.500 C 149.440 50.500,149.500 52.000,149.500 54.667 L 149.500 58.833 150.833 58.833 L 152.167 58.833 152.167 53.833 C 152.167 50.611,152.107 48.833,152.000 48.833 C 151.908 48.833,151.833 48.683,151.833 48.500 C 151.833 48.317,151.758 48.167,151.667 48.167 C 151.575 48.167,151.500 48.017,151.500 47.833 C 151.500 47.611,151.389 47.500,151.167 47.500 C 150.983 47.500,150.833 47.425,150.833 47.333 C 150.833 46.881,148.646 47.154,148.167 47.667 C 147.910 47.942,147.610 48.167,147.500 48.167 C 147.390 48.167,147.090 47.942,146.833 47.667 C 146.207 46.997,144.457 46.922,143.939 47.544 M158.833 47.333 C 158.833 47.425,158.608 47.500,158.333 47.500 C 158.058 47.500,157.833 47.575,157.833 47.667 C 157.833 47.758,157.718 47.833,157.578 47.833 C 157.266 47.833,156.167 48.904,156.167 49.208 C 156.167 49.328,156.017 49.535,155.833 49.667 C 155.638 49.808,155.500 50.098,155.500 50.370 C 155.500 50.625,155.425 50.833,155.333 50.833 C 155.230 50.833,155.167 51.722,155.167 53.167 C 155.167 54.611,155.230 55.500,155.333 55.500 C 155.425 55.500,155.500 55.650,155.500 55.833 C 155.500 56.017,155.575 56.167,155.667 56.167 C 155.758 56.167,155.833 56.317,155.833 56.500 C 155.833 56.683,155.908 56.833,156.000 56.833 C 156.092 56.833,156.167 56.948,156.167 57.089 C 156.167 57.421,157.246 58.500,157.578 58.500 C 157.718 58.500,157.833 58.575,157.833 58.667 C 157.833 58.758,157.983 58.833,158.167 58.833 C 158.350 58.833,158.500 58.908,158.500 59.000 C 158.500 59.102,159.278 59.167,160.500 59.167 C 161.722 59.167,162.500 59.102,162.500 59.000 C 162.500 58.908,162.725 58.833,163.000 58.833 C 163.275 58.833,163.500 58.758,163.500 58.667 C 163.500 58.575,163.615 58.500,163.756 58.500 C 164.067 58.500,165.167 57.429,165.167 57.126 C 165.167 57.005,165.317 56.799,165.500 56.667 C 165.893 56.384,165.925 56.068,165.595 55.738 C 165.234 55.377,162.500 55.398,162.500 55.762 C 162.500 56.099,162.099 56.500,161.762 56.500 C 161.618 56.500,161.500 56.575,161.500 56.667 C 161.500 56.758,161.200 56.833,160.833 56.833 C 160.467 56.833,160.167 56.758,160.167 56.667 C 160.167 56.575,160.049 56.500,159.905 56.500 C 159.568 56.500,159.167 56.099,159.167 55.762 C 159.167 55.618,159.092 55.500,159.000 55.500 C 158.908 55.500,158.833 55.275,158.833 55.000 C 158.833 54.725,158.758 54.500,158.667 54.500 C 158.575 54.500,158.500 54.425,158.500 54.333 C 158.500 54.227,159.833 54.167,162.167 54.167 L 165.833 54.167 165.833 52.500 C 165.833 51.500,165.767 50.833,165.667 50.833 C 165.575 50.833,165.500 50.625,165.500 50.370 C 165.500 50.098,165.362 49.808,165.167 49.667 C 164.983 49.535,164.833 49.328,164.833 49.208 C 164.833 48.904,163.734 47.833,163.422 47.833 C 163.282 47.833,163.167 47.758,163.167 47.667 C 163.167 47.575,163.017 47.500,162.833 47.500 C 162.650 47.500,162.500 47.425,162.500 47.333 C 162.500 47.232,161.778 47.167,160.667 47.167 C 159.556 47.167,158.833 47.232,158.833 47.333 M202.833 47.333 C 202.833 47.425,202.713 47.500,202.567 47.500 C 202.420 47.500,202.090 47.725,201.833 48.000 C 201.398 48.467,201.034 48.683,201.237 48.355 C 201.540 47.864,200.705 47.500,199.272 47.500 L 197.833 47.500 197.833 53.167 L 197.833 58.833 199.500 58.833 L 201.167 58.833 201.167 55.333 C 201.167 53.111,201.228 51.833,201.333 51.833 C 201.425 51.833,201.500 51.643,201.500 51.411 C 201.500 50.703,202.514 49.833,203.340 49.833 C 204.181 49.833,204.500 50.128,204.500 50.905 C 204.500 51.232,204.575 51.500,204.667 51.500 C 204.773 51.500,204.833 52.833,204.833 55.167 L 204.833 58.833 206.500 58.833 L 208.167 58.833 208.167 54.667 C 208.167 52.000,208.107 50.500,208.000 50.500 C 207.908 50.500,207.833 50.200,207.833 49.833 C 207.833 49.467,207.758 49.167,207.667 49.167 C 207.575 49.167,207.500 49.052,207.500 48.911 C 207.500 48.579,206.421 47.500,206.089 47.500 C 205.948 47.500,205.833 47.425,205.833 47.333 C 205.833 47.235,205.222 47.167,204.333 47.167 C 203.444 47.167,202.833 47.235,202.833 47.333 M229.500 47.333 C 229.500 47.425,229.275 47.500,229.000 47.500 C 228.725 47.500,228.500 47.575,228.500 47.667 C 228.500 47.758,228.385 47.833,228.244 47.833 C 227.933 47.833,226.833 48.904,226.833 49.208 C 226.833 49.328,226.683 49.535,226.500 49.667 C 226.304 49.808,226.167 50.098,226.167 50.370 C 226.167 50.625,226.092 50.833,226.000 50.833 C 225.897 50.833,225.833 51.722,225.833 53.167 C 225.833 54.611,225.897 55.500,226.000 55.500 C 226.092 55.500,226.167 55.650,226.167 55.833 C 226.167 56.017,226.242 56.167,226.333 56.167 C 226.425 56.167,226.500 56.317,226.500 56.500 C 226.500 56.683,226.575 56.833,226.667 56.833 C 226.758 56.833,226.833 56.948,226.833 57.089 C 226.833 57.421,227.913 58.500,228.244 58.500 C 228.385 58.500,228.500 58.575,228.500 58.667 C 228.500 58.758,228.650 58.833,228.833 58.833 C 229.017 58.833,229.167 58.908,229.167 59.000 C 229.167 59.102,229.944 59.167,231.167 59.167 C 232.389 59.167,233.167 59.102,233.167 59.000 C 233.167 58.908,233.392 58.833,233.667 58.833 C 233.942 58.833,234.167 58.758,234.167 58.667 C 234.167 58.575,234.282 58.500,234.422 58.500 C 234.734 58.500,235.833 57.429,235.833 57.126 C 235.833 57.005,235.983 56.799,236.167 56.667 C 236.559 56.384,236.592 56.068,236.262 55.738 C 235.901 55.377,233.167 55.398,233.167 55.762 C 233.167 56.099,232.765 56.500,232.429 56.500 C 232.285 56.500,232.167 56.575,232.167 56.667 C 232.167 56.758,231.867 56.833,231.500 56.833 C 231.133 56.833,230.833 56.758,230.833 56.667 C 230.833 56.575,230.715 56.500,230.571 56.500 C 230.235 56.500,229.833 56.099,229.833 55.762 C 229.833 55.618,229.758 55.500,229.667 55.500 C 229.575 55.500,229.500 55.275,229.500 55.000 C 229.500 54.725,229.425 54.500,229.333 54.500 C 229.242 54.500,229.167 54.425,229.167 54.333 C 229.167 54.227,230.500 54.167,232.833 54.167 L 236.500 54.167 236.500 52.500 C 236.500 51.500,236.433 50.833,236.333 50.833 C 236.242 50.833,236.167 50.625,236.167 50.370 C 236.167 50.098,236.029 49.808,235.833 49.667 C 235.650 49.535,235.500 49.328,235.500 49.208 C 235.500 48.904,234.401 47.833,234.089 47.833 C 233.948 47.833,233.833 47.758,233.833 47.667 C 233.833 47.575,233.683 47.500,233.500 47.500 C 233.317 47.500,233.167 47.425,233.167 47.333 C 233.167 47.232,232.444 47.167,231.333 47.167 C 230.222 47.167,229.500 47.232,229.500 47.333 M246.167 47.333 C 246.167 47.425,246.047 47.500,245.900 47.500 C 245.754 47.500,245.424 47.725,245.167 48.000 C 244.910 48.275,244.613 48.500,244.507 48.500 C 244.400 48.500,244.351 48.560,244.396 48.633 C 244.441 48.706,244.409 48.875,244.325 49.008 C 244.220 49.173,244.171 48.972,244.169 48.375 L 244.167 47.500 242.500 47.500 L 240.833 47.500 240.833 48.167 C 240.833 48.533,240.908 48.833,241.000 48.833 C 241.107 48.833,241.167 50.611,241.167 53.833 L 241.167 58.833 242.833 58.833 L 244.500 58.833 244.500 56.000 C 244.500 54.222,244.562 53.167,244.667 53.167 C 244.758 53.167,244.833 52.942,244.833 52.667 C 244.833 52.392,244.908 52.167,245.000 52.167 C 245.092 52.167,245.167 52.017,245.167 51.833 C 245.167 51.650,245.242 51.500,245.333 51.500 C 245.425 51.500,245.500 51.382,245.500 51.238 C 245.500 50.901,245.901 50.500,246.238 50.500 C 246.382 50.500,246.500 50.425,246.500 50.333 C 246.500 50.242,246.725 50.167,247.000 50.167 C 247.275 50.167,247.500 50.092,247.500 50.000 C 247.500 49.908,247.725 49.833,248.000 49.833 C 248.275 49.833,248.500 49.908,248.500 50.000 C 248.500 50.092,248.875 50.167,249.333 50.167 L 250.167 50.167 250.167 48.667 L 250.167 47.167 248.167 47.167 C 246.944 47.167,246.167 47.231,246.167 47.333 M271.500 47.333 C 271.500 47.425,271.292 47.500,271.037 47.500 C 270.765 47.500,270.474 47.638,270.333 47.833 C 270.201 48.017,269.960 48.167,269.797 48.167 C 269.623 48.167,269.500 48.290,269.500 48.463 C 269.500 48.626,269.350 48.868,269.167 49.000 C 268.913 49.183,268.833 49.431,268.833 50.037 L 268.833 50.833 270.500 50.833 L 272.167 50.833 272.167 50.405 C 272.167 49.773,272.540 49.500,273.405 49.500 C 274.056 49.500,274.167 49.549,274.167 49.833 C 274.167 50.017,274.242 50.167,274.333 50.167 C 274.425 50.167,274.500 50.542,274.500 51.000 L 274.500 51.833 272.667 51.833 C 271.556 51.833,270.833 51.899,270.833 52.000 C 270.833 52.092,270.644 52.167,270.412 52.167 C 269.942 52.167,268.500 53.483,268.500 53.912 C 268.500 54.052,268.425 54.167,268.333 54.167 C 268.235 54.167,268.167 54.778,268.167 55.667 C 268.167 56.556,268.235 57.167,268.333 57.167 C 268.425 57.167,268.500 57.282,268.500 57.422 C 268.500 57.754,269.579 58.833,269.911 58.833 C 270.052 58.833,270.167 58.908,270.167 59.000 C 270.167 59.099,270.778 59.167,271.667 59.167 C 272.556 59.167,273.167 59.099,273.167 59.000 C 273.167 58.908,273.317 58.833,273.500 58.833 C 273.683 58.833,273.833 58.758,273.833 58.667 C 273.833 58.575,273.951 58.500,274.095 58.500 C 274.432 58.500,274.833 58.099,274.833 57.762 C 274.833 57.618,274.913 57.500,275.010 57.500 C 275.107 57.500,275.144 57.568,275.092 57.652 C 274.746 58.212,276.308 59.167,277.570 59.167 C 278.301 59.167,278.833 59.096,278.833 59.000 C 278.833 58.908,278.983 58.833,279.167 58.833 C 279.463 58.833,279.500 58.722,279.500 57.833 L 279.500 56.833 278.833 56.833 C 278.278 56.833,278.167 56.778,278.167 56.500 C 278.167 56.317,278.092 56.167,278.000 56.167 C 277.894 56.167,277.833 54.944,277.833 52.833 C 277.833 50.722,277.772 49.500,277.667 49.500 C 277.575 49.500,277.500 49.386,277.500 49.246 C 277.500 48.915,276.085 47.500,275.754 47.500 C 275.614 47.500,275.500 47.425,275.500 47.333 C 275.500 47.231,274.722 47.167,273.500 47.167 C 272.278 47.167,271.500 47.231,271.500 47.333 M301.833 47.333 C 301.833 47.425,301.713 47.500,301.567 47.500 C 301.420 47.500,301.090 47.725,300.833 48.000 C 300.398 48.467,300.034 48.683,300.237 48.355 C 300.540 47.864,299.705 47.500,298.272 47.500 L 296.833 47.500 296.833 53.167 L 296.833 58.833 298.500 58.833 L 300.167 58.833 300.167 55.333 C 300.167 53.111,300.228 51.833,300.333 51.833 C 300.425 51.833,300.500 51.643,300.500 51.411 C 300.500 50.703,301.514 49.833,302.340 49.833 C 303.181 49.833,303.500 50.128,303.500 50.905 C 303.500 51.232,303.575 51.500,303.667 51.500 C 303.773 51.500,303.833 52.833,303.833 55.167 L 303.833 58.833 305.500 58.833 L 307.167 58.833 307.167 54.667 C 307.167 52.000,307.107 50.500,307.000 50.500 C 306.908 50.500,306.833 50.200,306.833 49.833 C 306.833 49.467,306.758 49.167,306.667 49.167 C 306.575 49.167,306.500 49.052,306.500 48.911 C 306.500 48.579,305.421 47.500,305.089 47.500 C 304.948 47.500,304.833 47.425,304.833 47.333 C 304.833 47.235,304.222 47.167,303.333 47.167 C 302.444 47.167,301.833 47.235,301.833 47.333 M313.273 47.544 C 313.062 47.797,312.937 47.850,312.884 47.708 C 312.830 47.566,312.389 47.500,311.486 47.500 L 310.167 47.500 310.167 53.167 L 310.167 58.833 311.500 58.833 L 312.833 58.833 312.833 55.333 C 312.833 53.111,312.894 51.833,313.000 51.833 C 313.092 51.833,313.167 51.458,313.167 51.000 C 313.167 50.542,313.242 50.167,313.333 50.167 C 313.425 50.167,313.500 50.017,313.500 49.833 C 313.500 49.611,313.611 49.500,313.833 49.500 C 314.056 49.500,314.167 49.611,314.167 49.833 C 314.167 50.017,314.242 50.167,314.333 50.167 C 314.440 50.167,314.500 51.722,314.500 54.500 L 314.500 58.833 315.833 58.833 L 317.167 58.833 317.167 55.000 C 317.167 52.556,317.227 51.167,317.333 51.167 C 317.425 51.167,317.500 50.899,317.500 50.571 C 317.500 49.941,317.804 49.500,318.238 49.500 C 318.418 49.500,318.500 49.657,318.500 50.000 C 318.500 50.275,318.575 50.500,318.667 50.500 C 318.773 50.500,318.833 52.000,318.833 54.667 L 318.833 58.833 320.167 58.833 L 321.500 58.833 321.500 53.833 C 321.500 50.611,321.441 48.833,321.333 48.833 C 321.242 48.833,321.167 48.683,321.167 48.500 C 321.167 48.317,321.092 48.167,321.000 48.167 C 320.908 48.167,320.833 48.017,320.833 47.833 C 320.833 47.611,320.722 47.500,320.500 47.500 C 320.317 47.500,320.167 47.425,320.167 47.333 C 320.167 46.881,317.979 47.154,317.500 47.667 C 317.243 47.942,316.943 48.167,316.833 48.167 C 316.724 48.167,316.424 47.942,316.167 47.667 C 315.541 46.997,313.791 46.922,313.273 47.544 M328.167 47.333 C 328.167 47.425,327.942 47.500,327.667 47.500 C 327.392 47.500,327.167 47.575,327.167 47.667 C 327.167 47.758,327.052 47.833,326.911 47.833 C 326.599 47.833,325.500 48.904,325.500 49.208 C 325.500 49.328,325.350 49.535,325.167 49.667 C 324.971 49.808,324.833 50.098,324.833 50.370 C 324.833 50.625,324.758 50.833,324.667 50.833 C 324.563 50.833,324.500 51.722,324.500 53.167 C 324.500 54.611,324.563 55.500,324.667 55.500 C 324.758 55.500,324.833 55.650,324.833 55.833 C 324.833 56.017,324.908 56.167,325.000 56.167 C 325.092 56.167,325.167 56.317,325.167 56.500 C 325.167 56.683,325.242 56.833,325.333 56.833 C 325.425 56.833,325.500 56.948,325.500 57.089 C 325.500 57.421,326.579 58.500,326.911 58.500 C 327.052 58.500,327.167 58.575,327.167 58.667 C 327.167 58.758,327.317 58.833,327.500 58.833 C 327.683 58.833,327.833 58.908,327.833 59.000 C 327.833 59.102,328.611 59.167,329.833 59.167 C 331.056 59.167,331.833 59.102,331.833 59.000 C 331.833 58.908,332.058 58.833,332.333 58.833 C 332.608 58.833,332.833 58.758,332.833 58.667 C 332.833 58.575,332.948 58.500,333.089 58.500 C 333.401 58.500,334.500 57.429,334.500 57.126 C 334.500 57.005,334.650 56.799,334.833 56.667 C 335.226 56.384,335.258 56.068,334.929 55.738 C 334.568 55.377,331.833 55.398,331.833 55.762 C 331.833 56.099,331.432 56.500,331.095 56.500 C 330.951 56.500,330.833 56.575,330.833 56.667 C 330.833 56.758,330.533 56.833,330.167 56.833 C 329.800 56.833,329.500 56.758,329.500 56.667 C 329.500 56.575,329.382 56.500,329.238 56.500 C 328.901 56.500,328.500 56.099,328.500 55.762 C 328.500 55.618,328.425 55.500,328.333 55.500 C 328.242 55.500,328.167 55.275,328.167 55.000 C 328.167 54.725,328.092 54.500,328.000 54.500 C 327.908 54.500,327.833 54.425,327.833 54.333 C 327.833 54.227,329.167 54.167,331.500 54.167 L 335.167 54.167 335.167 52.500 C 335.167 51.500,335.100 50.833,335.000 50.833 C 334.908 50.833,334.833 50.625,334.833 50.370 C 334.833 50.098,334.696 49.808,334.500 49.667 C 334.317 49.535,334.167 49.328,334.167 49.208 C 334.167 48.904,333.067 47.833,332.756 47.833 C 332.615 47.833,332.500 47.758,332.500 47.667 C 332.500 47.575,332.350 47.500,332.167 47.500 C 331.983 47.500,331.833 47.425,331.833 47.333 C 331.833 47.232,331.111 47.167,330.000 47.167 C 328.889 47.167,328.167 47.232,328.167 47.333 M344.167 47.333 C 344.167 47.425,344.047 47.500,343.900 47.500 C 343.754 47.500,343.424 47.725,343.167 48.000 C 342.731 48.467,342.367 48.683,342.570 48.355 C 342.874 47.864,342.038 47.500,340.605 47.500 L 339.167 47.500 339.167 53.167 L 339.167 58.833 340.833 58.833 L 342.500 58.833 342.500 55.333 C 342.500 53.111,342.561 51.833,342.667 51.833 C 342.758 51.833,342.833 51.643,342.833 51.411 C 342.833 50.703,343.847 49.833,344.673 49.833 C 345.514 49.833,345.833 50.128,345.833 50.905 C 345.833 51.232,345.908 51.500,346.000 51.500 C 346.106 51.500,346.167 52.833,346.167 55.167 L 346.167 58.833 347.833 58.833 L 349.500 58.833 349.500 54.667 C 349.500 52.000,349.440 50.500,349.333 50.500 C 349.242 50.500,349.167 50.200,349.167 49.833 C 349.167 49.467,349.092 49.167,349.000 49.167 C 348.908 49.167,348.833 49.052,348.833 48.911 C 348.833 48.579,347.754 47.500,347.422 47.500 C 347.282 47.500,347.167 47.425,347.167 47.333 C 347.167 47.235,346.556 47.167,345.667 47.167 C 344.778 47.167,344.167 47.235,344.167 47.333 M283.500 47.833 C 283.500 48.017,283.425 48.167,283.333 48.167 C 283.242 48.167,283.167 48.317,283.167 48.500 C 283.167 48.683,283.242 48.833,283.333 48.833 C 283.425 48.833,283.500 49.058,283.500 49.333 L 283.500 49.833 284.833 49.833 L 286.167 49.833 286.167 53.167 L 286.167 56.500 284.167 56.500 L 282.167 56.500 282.167 57.667 L 282.167 58.833 287.667 58.833 L 293.167 58.833 293.167 57.667 L 293.167 56.500 291.333 56.500 L 289.500 56.500 289.500 52.000 L 289.500 47.500 286.500 47.500 C 283.611 47.500,283.500 47.512,283.500 47.833 M118.500 49.167 C 118.500 49.533,118.575 49.833,118.667 49.833 C 118.758 49.833,118.833 50.058,118.833 50.333 C 118.833 50.608,118.908 50.833,119.000 50.833 C 119.092 50.833,119.167 51.133,119.167 51.500 C 119.167 51.867,119.242 52.167,119.333 52.167 C 119.425 52.167,119.500 52.317,119.500 52.500 C 119.500 52.806,119.389 52.833,118.167 52.833 C 117.389 52.833,116.833 52.764,116.833 52.667 C 116.833 52.575,116.908 52.500,117.000 52.500 C 117.092 52.500,117.167 52.200,117.167 51.833 C 117.167 51.467,117.242 51.167,117.333 51.167 C 117.425 51.167,117.500 50.942,117.500 50.667 C 117.500 50.392,117.575 50.167,117.667 50.167 C 117.758 50.167,117.833 49.867,117.833 49.500 C 117.833 49.007,117.901 48.833,118.093 48.833 C 118.236 48.833,118.307 48.758,118.250 48.667 C 118.193 48.575,118.226 48.500,118.323 48.500 C 118.421 48.500,118.500 48.800,118.500 49.167 M161.922 50.078 C 162.277 50.433,162.500 50.818,162.500 51.078 C 162.500 51.310,162.575 51.500,162.667 51.500 C 162.758 51.500,162.833 51.578,162.833 51.674 C 162.833 51.787,162.077 51.839,160.667 51.823 C 159.475 51.810,158.500 51.731,158.500 51.649 C 158.500 51.567,158.575 51.500,158.667 51.500 C 158.758 51.500,158.833 51.275,158.833 51.000 C 158.833 50.725,158.908 50.500,159.000 50.500 C 159.092 50.500,159.167 50.350,159.167 50.167 C 159.167 49.944,159.278 49.833,159.500 49.833 C 159.683 49.833,159.833 49.758,159.833 49.667 C 159.833 49.204,161.346 49.502,161.922 50.078 M232.589 50.078 C 232.944 50.433,233.167 50.818,233.167 51.078 C 233.167 51.310,233.242 51.500,233.333 51.500 C 233.425 51.500,233.500 51.578,233.500 51.674 C 233.500 51.787,232.743 51.839,231.333 51.823 C 230.142 51.810,229.167 51.731,229.167 51.649 C 229.167 51.567,229.242 51.500,229.333 51.500 C 229.425 51.500,229.500 51.275,229.500 51.000 C 229.500 50.725,229.575 50.500,229.667 50.500 C 229.758 50.500,229.833 50.350,229.833 50.167 C 229.833 49.944,229.944 49.833,230.167 49.833 C 230.350 49.833,230.500 49.758,230.500 49.667 C 230.500 49.204,232.013 49.502,232.589 50.078 M331.256 50.078 C 331.611 50.433,331.833 50.818,331.833 51.078 C 331.833 51.310,331.908 51.500,332.000 51.500 C 332.092 51.500,332.167 51.578,332.167 51.674 C 332.167 51.787,331.410 51.839,330.000 51.823 C 328.808 51.810,327.833 51.731,327.833 51.649 C 327.833 51.567,327.908 51.500,328.000 51.500 C 328.092 51.500,328.167 51.275,328.167 51.000 C 328.167 50.725,328.242 50.500,328.333 50.500 C 328.425 50.500,328.500 50.350,328.500 50.167 C 328.500 49.944,328.611 49.833,328.833 49.833 C 329.017 49.833,329.167 49.758,329.167 49.667 C 329.167 49.204,330.679 49.502,331.256 50.078 M274.500 54.667 C 274.500 55.125,274.425 55.500,274.333 55.500 C 274.242 55.500,274.167 55.618,274.167 55.762 C 274.167 56.099,273.765 56.500,273.429 56.500 C 273.285 56.500,273.167 56.575,273.167 56.667 C 273.167 56.920,272.342 56.866,272.071 56.595 C 271.940 56.464,271.833 56.239,271.833 56.095 C 271.833 55.951,271.758 55.833,271.667 55.833 C 271.575 55.833,271.500 55.683,271.500 55.500 C 271.500 55.317,271.575 55.167,271.667 55.167 C 271.758 55.167,271.833 55.049,271.833 54.905 C 271.833 54.568,272.235 54.167,272.571 54.167 C 272.715 54.167,272.833 54.092,272.833 54.000 C 272.833 53.908,273.208 53.833,273.667 53.833 L 274.500 53.833 274.500 54.667 " stroke="none" fill="#8c54a4" fill-rule="evenodd"></path><path id="path3" d="M70.833 17.333 C 70.833 17.425,70.946 17.500,71.083 17.500 C 71.221 17.500,71.333 17.425,71.333 17.333 C 71.333 17.242,71.221 17.167,71.083 17.167 C 70.946 17.167,70.833 17.242,70.833 17.333 M60.833 24.917 C 60.833 25.056,60.981 25.167,61.167 25.167 C 61.352 25.167,61.500 25.056,61.500 24.917 C 61.500 24.778,61.352 24.667,61.167 24.667 C 60.981 24.667,60.833 24.778,60.833 24.917 M98.833 26.750 C 98.833 26.917,99.000 27.000,99.333 27.000 C 99.667 27.000,99.833 26.917,99.833 26.750 C 99.833 26.583,99.667 26.500,99.333 26.500 C 99.000 26.500,98.833 26.583,98.833 26.750 M96.500 29.569 C 96.500 29.715,96.619 29.833,96.764 29.833 C 96.909 29.833,96.998 29.744,96.962 29.635 C 96.859 29.326,96.500 29.275,96.500 29.569 M99.167 31.917 C 99.167 32.054,99.242 32.167,99.333 32.167 C 99.425 32.167,99.500 32.054,99.500 31.917 C 99.500 31.779,99.425 31.667,99.333 31.667 C 99.242 31.667,99.167 31.779,99.167 31.917 M49.000 44.500 C 49.000 44.685,49.111 44.833,49.250 44.833 C 49.389 44.833,49.500 44.685,49.500 44.500 C 49.500 44.315,49.389 44.167,49.250 44.167 C 49.111 44.167,49.000 44.315,49.000 44.500 M211.833 48.500 C 211.833 48.867,211.908 49.167,212.000 49.167 C 212.092 49.167,212.167 48.867,212.167 48.500 C 212.167 48.133,212.092 47.833,212.000 47.833 C 211.908 47.833,211.833 48.133,211.833 48.500 M254.500 48.500 C 254.500 48.867,254.575 49.167,254.667 49.167 C 254.758 49.167,254.833 48.867,254.833 48.500 C 254.833 48.133,254.758 47.833,254.667 47.833 C 254.575 47.833,254.500 48.133,254.500 48.500 M353.167 48.500 C 353.167 48.867,353.242 49.167,353.333 49.167 C 353.425 49.167,353.500 48.867,353.500 48.500 C 353.500 48.133,353.425 47.833,353.333 47.833 C 353.242 47.833,353.167 48.133,353.167 48.500 M283.167 49.167 C 283.167 49.350,283.242 49.500,283.333 49.500 C 283.425 49.500,283.500 49.350,283.500 49.167 C 283.500 48.983,283.425 48.833,283.333 48.833 C 283.242 48.833,283.167 48.983,283.167 49.167 M247.500 50.000 C 247.500 50.092,247.725 50.167,248.000 50.167 C 248.275 50.167,248.500 50.092,248.500 50.000 C 248.500 49.908,248.275 49.833,248.000 49.833 C 247.725 49.833,247.500 49.908,247.500 50.000 M147.833 51.500 C 147.833 51.683,147.908 51.833,148.000 51.833 C 148.092 51.833,148.167 51.683,148.167 51.500 C 148.167 51.317,148.092 51.167,148.000 51.167 C 147.908 51.167,147.833 51.317,147.833 51.500 M317.167 51.500 C 317.167 51.683,317.242 51.833,317.333 51.833 C 317.425 51.833,317.500 51.683,317.500 51.500 C 317.500 51.317,317.425 51.167,317.333 51.167 C 317.242 51.167,317.167 51.317,317.167 51.500 M143.500 55.167 C 143.500 57.278,143.561 58.500,143.667 58.500 C 143.772 58.500,143.833 57.278,143.833 55.167 C 143.833 53.056,143.772 51.833,143.667 51.833 C 143.561 51.833,143.500 53.056,143.500 55.167 M312.833 55.167 C 312.833 57.278,312.894 58.500,313.000 58.500 C 313.106 58.500,313.167 57.278,313.167 55.167 C 313.167 53.056,313.106 51.833,313.000 51.833 C 312.894 51.833,312.833 53.056,312.833 55.167 M213.500 54.000 C 213.500 54.889,213.568 55.500,213.667 55.500 C 213.765 55.500,213.833 54.889,213.833 54.000 C 213.833 53.111,213.765 52.500,213.667 52.500 C 213.568 52.500,213.500 53.111,213.500 54.000 M256.167 54.000 C 256.167 54.889,256.235 55.500,256.333 55.500 C 256.432 55.500,256.500 54.889,256.500 54.000 C 256.500 53.111,256.432 52.500,256.333 52.500 C 256.235 52.500,256.167 53.111,256.167 54.000 M354.833 54.000 C 354.833 54.889,354.901 55.500,355.000 55.500 C 355.099 55.500,355.167 54.889,355.167 54.000 C 355.167 53.111,355.099 52.500,355.000 52.500 C 354.901 52.500,354.833 53.111,354.833 54.000 M244.500 53.500 C 244.500 53.683,244.575 53.833,244.667 53.833 C 244.758 53.833,244.833 53.683,244.833 53.500 C 244.833 53.317,244.758 53.167,244.667 53.167 C 244.575 53.167,244.500 53.317,244.500 53.500 M271.500 55.500 C 271.500 55.683,271.575 55.833,271.667 55.833 C 271.758 55.833,271.833 55.683,271.833 55.500 C 271.833 55.317,271.758 55.167,271.667 55.167 C 271.575 55.167,271.500 55.317,271.500 55.500 M277.833 55.833 C 277.833 56.017,277.908 56.167,278.000 56.167 C 278.092 56.167,278.167 56.017,278.167 55.833 C 278.167 55.650,278.092 55.500,278.000 55.500 C 277.908 55.500,277.833 55.650,277.833 55.833 M46.833 58.500 C 46.833 58.685,46.944 58.833,47.083 58.833 C 47.222 58.833,47.333 58.685,47.333 58.500 C 47.333 58.315,47.222 58.167,47.083 58.167 C 46.944 58.167,46.833 58.315,46.833 58.500 M47.869 60.394 C 48.079 60.611,48.281 60.762,48.318 60.729 C 48.415 60.644,47.812 60.000,47.635 60.000 C 47.554 60.000,47.660 60.177,47.869 60.394 M99.333 67.167 C 99.333 67.352,99.444 67.500,99.583 67.500 C 99.722 67.500,99.833 67.352,99.833 67.167 C 99.833 66.981,99.722 66.833,99.583 66.833 C 99.444 66.833,99.333 66.981,99.333 67.167 M94.167 67.333 C 94.167 67.425,94.279 67.500,94.417 67.500 C 94.554 67.500,94.667 67.425,94.667 67.333 C 94.667 67.242,94.554 67.167,94.417 67.167 C 94.279 67.167,94.167 67.242,94.167 67.333 M82.692 72.101 C 82.568 72.241,82.499 72.388,82.540 72.429 C 82.580 72.469,82.749 72.352,82.916 72.168 C 83.082 71.984,83.150 71.836,83.067 71.840 C 82.985 71.843,82.815 71.961,82.692 72.101 M87.000 73.833 C 87.000 74.019,87.111 74.167,87.250 74.167 C 87.389 74.167,87.500 74.019,87.500 73.833 C 87.500 73.648,87.389 73.500,87.250 73.500 C 87.111 73.500,87.000 73.648,87.000 73.833 M86.249 75.668 C 85.816 76.146,86.008 76.200,86.464 75.728 C 86.674 75.511,86.779 75.333,86.698 75.333 C 86.618 75.333,86.415 75.484,86.249 75.668 M70.167 77.250 C 70.167 77.417,70.333 77.500,70.667 77.500 C 71.000 77.500,71.167 77.417,71.167 77.250 C 71.167 77.083,71.000 77.000,70.667 77.000 C 70.333 77.000,70.167 77.083,70.167 77.250 " stroke="none" fill="#a078d4" fill-rule="evenodd"></path><path id="path4" d="M91.583 7.667 C 91.527 7.758,91.639 7.833,91.833 7.833 C 92.027 7.833,92.140 7.758,92.083 7.667 C 92.027 7.575,91.914 7.500,91.833 7.500 C 91.752 7.500,91.640 7.575,91.583 7.667 M88.751 9.166 C 88.585 9.350,88.503 9.500,88.569 9.500 C 88.745 9.500,89.220 8.998,89.130 8.908 C 89.088 8.866,88.917 8.982,88.751 9.166 M70.248 10.332 C 70.511 10.606,70.758 10.798,70.797 10.758 C 70.884 10.671,70.065 9.833,69.893 9.833 C 69.826 9.833,69.986 10.058,70.248 10.332 M51.751 11.166 C 51.585 11.350,51.503 11.500,51.569 11.500 C 51.745 11.500,52.220 10.998,52.130 10.908 C 52.088 10.866,51.917 10.982,51.751 11.166 M89.833 18.569 C 89.833 18.745,90.335 19.220,90.426 19.130 C 90.468 19.088,90.352 18.917,90.168 18.751 C 89.984 18.585,89.833 18.503,89.833 18.569 M60.917 19.667 C 60.860 19.758,60.973 19.833,61.167 19.833 C 61.361 19.833,61.473 19.758,61.417 19.667 C 61.360 19.575,61.248 19.500,61.167 19.500 C 61.086 19.500,60.973 19.575,60.917 19.667 M104.751 19.832 C 104.585 20.016,104.503 20.167,104.569 20.167 C 104.745 20.167,105.220 19.665,105.130 19.574 C 105.088 19.532,104.917 19.648,104.751 19.832 M109.167 19.903 C 109.167 20.078,109.669 20.554,109.759 20.463 C 109.801 20.421,109.685 20.251,109.501 20.084 C 109.317 19.918,109.167 19.836,109.167 19.903 M86.084 22.501 C 86.251 22.685,86.421 22.801,86.463 22.759 C 86.554 22.669,86.078 22.167,85.903 22.167 C 85.836 22.167,85.918 22.317,86.084 22.501 M59.418 24.501 C 59.584 24.685,59.755 24.801,59.797 24.759 C 59.887 24.669,59.412 24.167,59.236 24.167 C 59.169 24.167,59.251 24.317,59.418 24.501 M109.358 25.434 C 109.234 25.574,109.166 25.722,109.206 25.762 C 109.247 25.802,109.416 25.685,109.582 25.501 C 109.749 25.317,109.817 25.170,109.734 25.173 C 109.651 25.176,109.482 25.294,109.358 25.434 M37.500 41.569 C 37.500 41.745,38.002 42.220,38.092 42.130 C 38.134 42.088,38.018 41.917,37.834 41.751 C 37.650 41.585,37.500 41.503,37.500 41.569 M43.908 44.348 C 43.846 44.448,43.879 44.613,43.981 44.715 C 44.117 44.851,44.167 44.803,44.167 44.533 C 44.167 44.131,44.080 44.069,43.908 44.348 M32.751 47.168 C 32.917 47.352,33.088 47.468,33.130 47.426 C 33.220 47.335,32.745 46.833,32.569 46.833 C 32.503 46.833,32.585 46.984,32.751 47.168 M37.692 47.101 C 37.568 47.241,37.499 47.388,37.540 47.429 C 37.580 47.469,37.749 47.352,37.916 47.168 C 38.082 46.984,38.150 46.836,38.067 46.840 C 37.985 46.843,37.815 46.961,37.692 47.101 M146.500 47.236 C 146.500 47.412,147.002 47.887,147.092 47.797 C 147.134 47.755,147.018 47.584,146.834 47.418 C 146.650 47.251,146.500 47.169,146.500 47.236 M315.833 47.236 C 315.833 47.412,316.335 47.887,316.426 47.797 C 316.468 47.755,316.352 47.584,316.168 47.418 C 315.984 47.251,315.833 47.169,315.833 47.236 M147.751 47.832 C 147.585 48.016,147.503 48.167,147.569 48.167 C 147.745 48.167,148.220 47.665,148.130 47.574 C 148.088 47.532,147.917 47.648,147.751 47.832 M206.500 47.560 C 206.500 47.732,207.338 48.551,207.425 48.464 C 207.464 48.425,207.272 48.178,206.998 47.915 C 206.724 47.652,206.500 47.493,206.500 47.560 M244.915 48.002 C 244.652 48.276,244.493 48.500,244.560 48.500 C 244.732 48.500,245.551 47.662,245.464 47.575 C 245.425 47.536,245.178 47.728,244.915 48.002 M305.500 47.560 C 305.500 47.732,306.338 48.551,306.425 48.464 C 306.464 48.425,306.272 48.178,305.998 47.915 C 305.724 47.652,305.500 47.493,305.500 47.560 M317.084 47.832 C 316.918 48.016,316.836 48.167,316.903 48.167 C 317.078 48.167,317.554 47.665,317.463 47.574 C 317.421 47.532,317.251 47.648,317.084 47.832 M347.833 47.560 C 347.833 47.732,348.671 48.551,348.758 48.464 C 348.798 48.425,348.606 48.178,348.332 47.915 C 348.058 47.652,347.833 47.493,347.833 47.560 M187.167 49.149 C 187.167 49.903,187.227 50.482,187.302 50.436 C 187.469 50.333,187.459 48.070,187.290 47.901 C 187.222 47.833,187.167 48.395,187.167 49.149 M201.418 48.166 C 201.251 48.350,201.169 48.500,201.236 48.500 C 201.412 48.500,201.887 47.998,201.797 47.908 C 201.755 47.866,201.584 47.982,201.418 48.166 M276.500 47.903 C 276.500 48.078,277.002 48.554,277.092 48.463 C 277.134 48.421,277.018 48.251,276.834 48.084 C 276.650 47.918,276.500 47.836,276.500 47.903 M300.418 48.166 C 300.251 48.350,300.169 48.500,300.236 48.500 C 300.412 48.500,300.887 47.998,300.797 47.908 C 300.755 47.866,300.584 47.982,300.418 48.166 M342.751 48.166 C 342.585 48.350,342.503 48.500,342.569 48.500 C 342.745 48.500,343.220 47.998,343.130 47.908 C 343.088 47.866,342.917 47.982,342.751 48.166 M272.358 49.767 C 272.234 49.907,272.166 50.055,272.206 50.095 C 272.247 50.136,272.416 50.018,272.582 49.834 C 272.749 49.650,272.817 49.503,272.734 49.506 C 272.651 49.510,272.482 49.627,272.358 49.767 M204.084 50.168 C 204.251 50.352,204.421 50.468,204.463 50.426 C 204.554 50.335,204.078 49.833,203.903 49.833 C 203.836 49.833,203.918 49.984,204.084 50.168 M303.084 50.168 C 303.251 50.352,303.421 50.468,303.463 50.426 C 303.554 50.335,303.078 49.833,302.903 49.833 C 302.836 49.833,302.918 49.984,303.084 50.168 M345.418 50.168 C 345.584 50.352,345.755 50.468,345.797 50.426 C 345.887 50.335,345.412 49.833,345.236 49.833 C 345.169 49.833,345.251 49.984,345.418 50.168 M213.645 50.208 C 213.551 50.391,213.607 52.500,213.706 52.500 C 213.776 52.500,213.833 51.975,213.833 51.333 C 213.833 50.365,213.768 49.972,213.645 50.208 M256.312 50.208 C 256.218 50.391,256.273 52.500,256.372 52.500 C 256.443 52.500,256.500 51.975,256.500 51.333 C 256.500 50.365,256.434 49.972,256.312 50.208 M268.574 50.348 C 268.513 50.448,268.546 50.613,268.648 50.715 C 268.784 50.851,268.833 50.803,268.833 50.533 C 268.833 50.131,268.747 50.069,268.574 50.348 M354.978 50.208 C 354.884 50.391,354.940 52.500,355.039 52.500 C 355.109 52.500,355.167 51.975,355.167 51.333 C 355.167 50.365,355.101 49.972,354.978 50.208 M137.167 50.833 C 137.167 51.144,137.211 51.189,137.367 51.033 C 137.522 50.878,137.522 50.789,137.367 50.633 C 137.211 50.478,137.167 50.522,137.167 50.833 M245.692 50.767 C 245.568 50.907,245.499 51.055,245.540 51.095 C 245.580 51.136,245.749 51.018,245.916 50.834 C 246.082 50.650,246.150 50.503,246.067 50.506 C 245.985 50.510,245.815 50.627,245.692 50.767 M277.833 53.306 C 277.833 54.512,277.890 55.500,277.960 55.500 C 278.124 55.500,278.122 51.400,277.958 51.236 C 277.890 51.167,277.833 52.099,277.833 53.306 M269.084 52.832 C 268.918 53.016,268.836 53.167,268.903 53.167 C 269.078 53.167,269.554 52.665,269.463 52.574 C 269.421 52.532,269.251 52.648,269.084 52.832 M187.167 54.482 C 187.167 55.053,187.229 55.481,187.305 55.434 C 187.475 55.329,187.461 53.739,187.290 53.568 C 187.222 53.500,187.167 53.911,187.167 54.482 M273.751 56.166 C 273.585 56.350,273.503 56.500,273.569 56.500 C 273.745 56.500,274.220 55.998,274.130 55.908 C 274.088 55.866,273.917 55.982,273.751 56.166 M127.751 57.168 C 127.917 57.352,128.088 57.468,128.130 57.426 C 128.220 57.335,127.745 56.833,127.569 56.833 C 127.503 56.833,127.585 56.984,127.751 57.168 M135.692 58.101 C 135.568 58.241,135.499 58.388,135.540 58.429 C 135.580 58.469,135.749 58.352,135.916 58.168 C 136.082 57.984,136.150 57.836,136.067 57.840 C 135.985 57.843,135.815 57.961,135.692 58.101 M214.582 58.332 C 214.844 58.606,215.091 58.798,215.131 58.758 C 215.217 58.671,214.398 57.833,214.226 57.833 C 214.159 57.833,214.319 58.058,214.582 58.332 M257.248 58.332 C 257.511 58.606,257.758 58.798,257.797 58.758 C 257.884 58.671,257.065 57.833,256.893 57.833 C 256.826 57.833,256.986 58.058,257.248 58.332 M355.915 58.332 C 356.178 58.606,356.425 58.798,356.464 58.758 C 356.551 58.671,355.732 57.833,355.560 57.833 C 355.493 57.833,355.652 58.058,355.915 58.332 M40.833 59.893 C 40.833 60.065,41.671 60.884,41.758 60.797 C 41.798 60.758,41.606 60.511,41.332 60.248 C 41.058 59.986,40.833 59.826,40.833 59.893 M47.751 60.501 C 47.917 60.685,48.088 60.801,48.130 60.759 C 48.220 60.669,47.745 60.167,47.569 60.167 C 47.503 60.167,47.585 60.317,47.751 60.501 M51.358 60.434 C 51.234 60.574,51.166 60.722,51.206 60.762 C 51.247 60.802,51.416 60.685,51.582 60.501 C 51.749 60.317,51.817 60.170,51.734 60.173 C 51.651 60.176,51.482 60.294,51.358 60.434 M60.358 71.434 C 60.234 71.574,60.166 71.722,60.206 71.762 C 60.247 71.802,60.416 71.685,60.582 71.501 C 60.749 71.317,60.817 71.170,60.734 71.173 C 60.651 71.176,60.482 71.294,60.358 71.434 M82.582 72.002 C 82.319 72.276,82.159 72.500,82.226 72.500 C 82.398 72.500,83.217 71.662,83.131 71.575 C 83.091 71.536,82.844 71.728,82.582 72.002 M86.358 75.767 C 86.234 75.907,86.166 76.055,86.206 76.095 C 86.247 76.136,86.416 76.018,86.582 75.834 C 86.749 75.650,86.817 75.503,86.734 75.506 C 86.651 75.510,86.482 75.627,86.358 75.767 M72.692 76.434 C 72.568 76.574,72.499 76.722,72.540 76.762 C 72.580 76.802,72.749 76.685,72.916 76.501 C 73.082 76.317,73.150 76.170,73.067 76.173 C 72.985 76.176,72.815 76.294,72.692 76.434 M47.751 79.834 C 47.917 80.018,48.088 80.134,48.130 80.092 C 48.220 80.002,47.745 79.500,47.569 79.500 C 47.503 79.500,47.585 79.650,47.751 79.834 M65.418 82.832 C 65.251 83.016,65.169 83.167,65.236 83.167 C 65.412 83.167,65.887 82.665,65.797 82.574 C 65.755 82.532,65.584 82.648,65.418 82.832 M70.500 82.569 C 70.500 82.745,71.002 83.220,71.092 83.130 C 71.134 83.088,71.018 82.917,70.834 82.751 C 70.650 82.585,70.500 82.503,70.500 82.569 M89.858 86.605 C 89.643 86.834,89.498 87.054,89.537 87.093 C 89.576 87.131,89.822 86.939,90.085 86.665 C 90.348 86.391,90.492 86.171,90.406 86.177 C 90.320 86.182,90.074 86.375,89.858 86.605 M84.751 86.834 C 84.917 87.018,85.088 87.134,85.130 87.092 C 85.220 87.002,84.745 86.500,84.569 86.500 C 84.503 86.500,84.585 86.650,84.751 86.834 M70.692 87.767 C 70.568 87.907,70.499 88.055,70.540 88.095 C 70.580 88.136,70.749 88.018,70.916 87.834 C 71.082 87.650,71.150 87.503,71.067 87.506 C 70.985 87.510,70.815 87.627,70.692 87.767 " stroke="none" fill="#a07ca4" fill-rule="evenodd"></path></g></svg>